<svg width="1440" height="2129" viewBox="0 0 1440 2129" fill="none" xmlns="http://www.w3.org/2000/svg">
<g filter="url(#filter0_f_306_2)">
<path d="M41.7164 1730.34C46.18 1730.46 50.5445 1732.79 54.5608 1737.21C58.5771 1741.62 62.1665 1748.04 65.1241 1756.1C68.0817 1764.15 70.3496 1773.68 71.7982 1784.15C73.2468 1794.61 73.8478 1805.8 73.5669 1817.08C73.286 1828.36 72.1287 1839.5 70.161 1849.88C68.1934 1860.26 65.454 1869.67 62.0991 1877.56C58.7443 1885.46 54.8397 1891.69 50.6085 1895.91C46.3772 1900.12 41.902 1902.23 37.4384 1902.12L39.5774 1816.23L41.7164 1730.34Z" fill="#2491E9"/>
</g>
<g filter="url(#filter1_f_306_2)">
<path d="M11.2765 752.329C15.7401 752.44 20.0916 755.296 24.0825 760.733C28.0734 766.17 31.6257 774.082 34.5364 784.017C37.4472 793.953 39.6594 805.717 41.0468 818.638C42.4342 831.558 42.9696 845.383 42.6225 859.323C42.2753 873.262 41.0524 887.043 39.0235 899.879C36.9947 912.715 34.1996 924.354 30.7979 934.132C27.3962 943.91 23.4545 951.636 19.1979 956.868C14.9412 962.099 10.453 964.735 5.98946 964.624L8.63299 858.476L11.2765 752.329Z" fill="#2491E9"/>
</g>
<g filter="url(#filter2_f_306_2)">
<ellipse cx="786.5" cy="696.824" rx="151.5" ry="39.5" fill="#2491E9" fill-opacity="0.64"/>
</g>
<g filter="url(#filter3_f_306_2)">
<ellipse cx="1346.5" cy="1081.5" rx="151.5" ry="39.5" fill="#2491E9" fill-opacity="0.5"/>
</g>
<g filter="url(#filter4_f_306_2)">
<ellipse cx="1000.5" cy="1798.5" rx="151.5" ry="22.5" fill="#2491E9" fill-opacity="0.64"/>
</g>
<g filter="url(#filter5_d_306_2)">
<path d="M1412.61 484.284C1418.44 487.567 1417.05 496.333 1410.48 497.637L1377.81 504.127C1375.74 504.537 1373.96 505.828 1372.93 507.662L1356.59 536.69C1353.3 542.522 1344.54 541.122 1343.23 534.558L1336.74 501.884C1336.33 499.82 1335.04 498.039 1333.21 497.006L1304.18 480.665C1298.35 477.382 1299.75 468.615 1306.31 467.311L1338.99 460.821C1341.05 460.411 1342.83 459.12 1343.87 457.287L1360.21 428.259C1363.49 422.427 1372.26 423.827 1373.56 430.391L1380.05 463.064C1380.46 465.128 1381.75 466.91 1383.59 467.942L1412.61 484.284Z" fill="url(#paint0_linear_306_2)" shape-rendering="crispEdges"/>
<path d="M1412.44 484.598C1417.98 487.717 1416.65 496.045 1410.41 497.284L1377.74 503.774C1375.57 504.204 1373.7 505.56 1372.62 507.485L1356.27 536.513C1353.16 542.053 1344.83 540.724 1343.59 534.487L1337.1 501.814C1336.67 499.647 1335.31 497.776 1333.39 496.692L1304.36 480.351C1298.82 477.232 1300.15 468.903 1306.38 467.665L1339.06 461.175C1341.22 460.744 1343.1 459.389 1344.18 457.464L1360.52 428.436C1363.64 422.895 1371.97 424.225 1373.21 430.461L1379.7 463.134C1380.13 465.302 1381.48 467.172 1383.41 468.256L1412.44 484.598Z" stroke="#0BB473" stroke-width="0.720951" shape-rendering="crispEdges"/>
</g>
<g filter="url(#filter6_d_306_2)">
<path d="M711.795 111.564C710.136 111.893 709.025 109.907 710.174 108.666L714.278 104.23C714.791 103.675 714.889 102.852 714.52 102.192L711.569 96.9183C710.743 95.4422 712.289 93.7718 713.824 94.4805L719.311 97.0128C719.998 97.3297 720.811 97.1684 721.324 96.6132L725.428 92.1774C726.577 90.9359 728.643 91.8895 728.444 93.569L727.731 99.5698C727.642 100.321 728.046 101.044 728.733 101.361L734.22 103.893C735.756 104.602 735.487 106.862 733.828 107.191L727.901 108.368C727.159 108.515 726.596 109.123 726.507 109.874L725.794 115.875C725.595 117.554 723.363 117.998 722.537 116.522L719.586 111.248C719.217 110.588 718.465 110.24 717.723 110.388L711.795 111.564Z" fill="url(#paint1_linear_306_2)" shape-rendering="crispEdges"/>
<path d="M711.778 111.479C710.202 111.791 709.147 109.905 710.238 108.725L714.342 104.289C714.881 103.706 714.984 102.842 714.596 102.149L711.645 96.8756C710.861 95.4734 712.329 93.8865 713.788 94.5598L719.275 97.092C719.996 97.4248 720.849 97.2555 721.389 96.6725L725.492 92.2367C726.584 91.0572 728.547 91.9631 728.357 93.5587L727.644 99.5595C727.551 100.348 727.975 101.107 728.696 101.44L734.183 103.973C735.642 104.646 735.387 106.793 733.811 107.105L727.884 108.282C727.105 108.437 726.514 109.075 726.42 109.864L725.708 115.865C725.518 117.46 723.397 117.881 722.613 116.479L719.662 111.205C719.275 110.512 718.485 110.147 717.706 110.302L711.778 111.479Z" stroke="#0BB473" stroke-width="0.174593" shape-rendering="crispEdges"/>
</g>
<g filter="url(#filter7_d_306_2)">
<path d="M350.318 616.254C349.281 611.738 354.628 608.534 358.121 611.578L370.601 622.452C372.163 623.814 374.424 624.014 376.202 622.949L390.401 614.44C394.375 612.059 399.075 616.154 397.259 620.416L390.773 635.646C389.962 637.552 390.47 639.765 392.032 641.126L404.512 652.001C408.005 655.044 405.562 660.779 400.948 660.37L384.459 658.908C382.395 658.725 380.448 659.892 379.636 661.798L373.15 677.028C371.335 681.291 365.126 680.74 364.089 676.224L360.384 660.091C359.92 658.072 358.209 656.58 356.145 656.397L339.657 654.935C335.042 654.526 333.647 648.45 337.621 646.069L351.82 637.56C353.597 636.495 354.486 634.407 354.023 632.387L350.318 616.254Z" fill="url(#paint2_linear_306_2)" shape-rendering="crispEdges"/>
<path d="M350.551 616.2C349.566 611.911 354.646 608.866 357.964 611.758L370.444 622.633C372.084 624.062 374.458 624.272 376.325 623.154L390.524 614.645C394.299 612.383 398.764 616.273 397.039 620.323L390.553 635.552C389.701 637.554 390.234 639.877 391.875 641.306L404.355 652.181C407.673 655.072 405.353 660.521 400.969 660.132L384.48 658.67C382.313 658.478 380.269 659.703 379.416 661.704L372.93 676.934C371.206 680.984 365.307 680.461 364.322 676.171L360.617 660.037C360.13 657.917 358.333 656.351 356.166 656.159L339.678 654.697C335.294 654.308 333.968 648.537 337.744 646.274L351.943 637.765C353.809 636.647 354.743 634.454 354.256 632.334L350.551 616.2Z" stroke="#0BB473" stroke-width="0.478258" shape-rendering="crispEdges"/>
</g>
<g filter="url(#filter8_d_306_2)">
<path d="M1414.97 1348.77C1415.97 1346.34 1419.49 1346.61 1420.11 1349.16L1422.33 1358.28C1422.6 1359.42 1423.59 1360.25 1424.76 1360.34L1434.12 1361.05C1436.73 1361.25 1437.57 1364.69 1435.33 1366.06L1427.35 1370.99C1426.35 1371.61 1425.86 1372.8 1426.13 1373.94L1428.35 1383.06C1428.97 1385.61 1425.96 1387.47 1423.96 1385.77L1416.81 1379.69C1415.91 1378.93 1414.63 1378.83 1413.63 1379.45L1405.64 1384.38C1403.4 1385.75 1400.71 1383.47 1401.71 1381.04L1405.28 1372.36C1405.72 1371.27 1405.42 1370.02 1404.52 1369.26L1397.37 1363.18C1395.37 1361.48 1396.71 1358.22 1399.33 1358.41L1408.69 1359.12C1409.86 1359.21 1410.95 1358.54 1411.4 1357.45L1414.97 1348.77Z" fill="url(#paint3_linear_306_2)" shape-rendering="crispEdges"/>
<path d="M1415.09 1348.82C1416.04 1346.51 1419.39 1346.77 1419.98 1349.19L1422.2 1358.31C1422.49 1359.51 1423.52 1360.38 1424.75 1360.48L1434.1 1361.19C1436.59 1361.38 1437.39 1364.64 1435.26 1365.95L1427.27 1370.88C1426.22 1371.52 1425.71 1372.77 1426 1373.97L1428.22 1383.09C1428.81 1385.52 1425.95 1387.28 1424.05 1385.66L1416.89 1379.59C1415.95 1378.79 1414.61 1378.69 1413.56 1379.33L1405.57 1384.26C1403.44 1385.57 1400.89 1383.4 1401.83 1381.09L1405.4 1372.41C1405.87 1371.27 1405.55 1369.95 1404.61 1369.16L1397.46 1363.08C1395.56 1361.47 1396.83 1358.36 1399.32 1358.55L1408.68 1359.26C1409.91 1359.35 1411.06 1358.64 1411.53 1357.5L1415.09 1348.82Z" stroke="#0BB473" stroke-width="0.271149" shape-rendering="crispEdges"/>
</g>
<g filter="url(#filter9_d_306_2)">
<path d="M807.413 1584.15C808.587 1582.6 811.052 1583.46 811.011 1585.4L810.866 1592.33C810.848 1593.2 811.39 1593.98 812.21 1594.26L818.757 1596.54C820.59 1597.18 820.535 1599.79 818.677 1600.35L812.04 1602.36C811.209 1602.61 810.634 1603.37 810.616 1604.23L810.471 1611.16C810.43 1613.1 807.93 1613.86 806.823 1612.27L802.866 1606.57C802.371 1605.86 801.473 1605.55 800.643 1605.8L794.005 1607.8C792.148 1608.36 790.658 1606.22 791.831 1604.67L796.023 1599.15C796.548 1598.46 796.568 1597.51 796.072 1596.8L792.116 1591.1C791.009 1589.51 792.587 1587.43 794.42 1588.07L800.967 1590.35C801.787 1590.63 802.697 1590.36 803.221 1589.67L807.413 1584.15Z" fill="url(#paint4_linear_306_2)" shape-rendering="crispEdges"/>
<path d="M807.493 1584.21C808.608 1582.74 810.95 1583.55 810.911 1585.4L810.766 1592.33C810.747 1593.24 811.316 1594.06 812.177 1594.36L818.724 1596.64C820.465 1597.25 820.413 1599.73 818.648 1600.26L812.011 1602.26C811.139 1602.52 810.535 1603.32 810.516 1604.23L810.37 1611.16C810.332 1613.01 807.957 1613.72 806.905 1612.21L802.949 1606.52C802.429 1605.77 801.486 1605.44 800.614 1605.7L793.976 1607.71C792.212 1608.24 790.796 1606.2 791.911 1604.73L796.103 1599.21C796.654 1598.49 796.675 1597.49 796.155 1596.74L792.198 1591.05C791.146 1589.53 792.646 1587.56 794.387 1588.16L800.934 1590.44C801.795 1590.74 802.75 1590.45 803.301 1589.73L807.493 1584.21Z" stroke="#0BB473" stroke-width="0.20031" shape-rendering="crispEdges"/>
</g>
<g filter="url(#filter10_d_306_2)">
<path d="M968.829 1782.38C968.905 1780.45 971.418 1779.74 972.496 1781.35L976.346 1787.12C976.828 1787.84 977.72 1788.17 978.555 1787.93L985.229 1786.05C987.096 1785.53 988.546 1787.7 987.345 1789.22L983.051 1794.66C982.514 1795.35 982.476 1796.3 982.958 1797.02L986.809 1802.78C987.886 1804.4 986.269 1806.45 984.449 1805.77L977.945 1803.37C977.131 1803.07 976.216 1803.33 975.679 1804.01L971.385 1809.46C970.183 1810.98 967.734 1810.07 967.811 1808.14L968.085 1801.21C968.119 1800.34 967.591 1799.55 966.777 1799.25L960.273 1796.85C958.452 1796.18 958.556 1793.57 960.423 1793.04L967.097 1791.16C967.932 1790.93 968.521 1790.18 968.555 1789.31L968.829 1782.38Z" fill="url(#paint5_linear_306_2)" shape-rendering="crispEdges"/>
<path d="M968.929 1782.39C969.002 1780.55 971.389 1779.87 972.413 1781.41L976.263 1787.17C976.769 1787.93 977.706 1788.28 978.583 1788.03L985.256 1786.15C987.03 1785.65 988.408 1787.71 987.266 1789.16L982.973 1794.6C982.408 1795.32 982.369 1796.32 982.875 1797.07L986.725 1802.84C987.749 1804.37 986.213 1806.32 984.484 1805.68L977.98 1803.28C977.125 1802.96 976.164 1803.23 975.6 1803.95L971.306 1809.39C970.165 1810.84 967.838 1809.98 967.911 1808.14L968.185 1801.21C968.221 1800.3 967.666 1799.47 966.811 1799.16L960.307 1796.75C958.578 1796.12 958.676 1793.64 960.45 1793.14L967.124 1791.26C968.001 1791.01 968.619 1790.23 968.655 1789.32L968.929 1782.39Z" stroke="#0BB473" stroke-width="0.20031" shape-rendering="crispEdges"/>
</g>
<g filter="url(#filter11_d_306_2)">
<path d="M1041.24 1168.15C1042.16 1167.46 1043.43 1168.35 1043.09 1169.45L1041.88 1173.4C1041.73 1173.89 1041.91 1174.42 1042.34 1174.72L1045.71 1177.09C1046.66 1177.75 1046.2 1179.24 1045.05 1179.26L1040.92 1179.32C1040.41 1179.33 1039.96 1179.67 1039.8 1180.17L1038.59 1184.11C1038.26 1185.21 1036.7 1185.24 1036.33 1184.15L1034.99 1180.25C1034.82 1179.76 1034.36 1179.43 1033.84 1179.44L1029.72 1179.51C1028.56 1179.53 1028.06 1178.06 1028.98 1177.36L1032.28 1174.89C1032.69 1174.58 1032.86 1174.03 1032.69 1173.55L1031.35 1169.65C1030.98 1168.55 1032.22 1167.62 1033.16 1168.28L1036.54 1170.65C1036.96 1170.95 1037.53 1170.94 1037.94 1170.63L1041.24 1168.15Z" fill="url(#paint6_linear_306_2)" shape-rendering="crispEdges"/>
<path d="M1041.27 1168.2C1042.15 1167.54 1043.36 1168.39 1043.04 1169.44L1041.83 1173.38C1041.67 1173.9 1041.86 1174.46 1042.3 1174.77L1045.68 1177.14C1046.58 1177.77 1046.14 1179.18 1045.05 1179.2L1040.92 1179.26C1040.38 1179.27 1039.91 1179.63 1039.75 1180.15L1038.54 1184.09C1038.22 1185.14 1036.74 1185.16 1036.38 1184.13L1035.05 1180.23C1034.87 1179.71 1034.38 1179.37 1033.84 1179.38L1029.72 1179.45C1028.62 1179.47 1028.14 1178.07 1029.02 1177.41L1032.32 1174.93C1032.75 1174.61 1032.92 1174.04 1032.75 1173.53L1031.41 1169.63C1031.05 1168.59 1032.23 1167.7 1033.13 1168.33L1036.51 1170.7C1036.95 1171.01 1037.54 1171 1037.98 1170.68L1041.27 1168.2Z" stroke="#0BB473" stroke-width="0.119157" shape-rendering="crispEdges"/>
</g>
<g filter="url(#filter12_d_306_2)">
<path d="M1254.37 1562.5C1255.54 1560.95 1258 1561.81 1257.96 1563.75L1257.82 1570.68C1257.8 1571.55 1258.34 1572.33 1259.16 1572.62L1265.71 1574.9C1267.54 1575.54 1267.49 1578.15 1265.63 1578.71L1258.99 1580.71C1258.16 1580.96 1257.59 1581.72 1257.57 1582.59L1257.42 1589.52C1257.38 1591.46 1254.88 1592.21 1253.78 1590.62L1249.82 1584.93C1249.32 1584.21 1248.43 1583.9 1247.6 1584.15L1240.96 1586.15C1239.1 1586.72 1237.61 1584.57 1238.78 1583.03L1242.98 1577.5C1243.5 1576.81 1243.52 1575.86 1243.02 1575.15L1239.07 1569.46C1237.96 1567.86 1239.54 1565.78 1241.37 1566.42L1247.92 1568.7C1248.74 1568.99 1249.65 1568.71 1250.17 1568.02L1254.37 1562.5Z" fill="url(#paint7_linear_306_2)" shape-rendering="crispEdges"/>
<path d="M1254.45 1562.56C1255.56 1561.09 1257.9 1561.91 1257.86 1563.75L1257.72 1570.68C1257.7 1571.59 1258.27 1572.41 1259.13 1572.71L1265.68 1574.99C1267.42 1575.6 1267.37 1578.08 1265.6 1578.61L1258.96 1580.61C1258.09 1580.88 1257.49 1581.67 1257.47 1582.58L1257.32 1589.52C1257.28 1591.36 1254.91 1592.08 1253.86 1590.56L1249.9 1584.87C1249.38 1584.12 1248.44 1583.79 1247.57 1584.05L1240.93 1586.06C1239.16 1586.59 1237.75 1584.55 1238.86 1583.09L1243.06 1577.56C1243.61 1576.84 1243.63 1575.84 1243.11 1575.09L1239.15 1569.4C1238.1 1567.88 1239.6 1565.91 1241.34 1566.52L1247.89 1568.8C1248.75 1569.1 1249.7 1568.81 1250.25 1568.08L1254.45 1562.56Z" stroke="#0BB473" stroke-width="0.20031" shape-rendering="crispEdges"/>
</g>
<g filter="url(#filter13_d_306_2)">
<path d="M1364.13 1088.35C1365.59 1087.07 1367.83 1088.42 1367.4 1090.31L1365.84 1097.06C1365.65 1097.91 1366.02 1098.78 1366.77 1099.23L1372.71 1102.8C1374.38 1103.79 1373.79 1106.34 1371.86 1106.51L1364.95 1107.12C1364.09 1107.2 1363.37 1107.82 1363.18 1108.67L1361.63 1115.42C1361.19 1117.31 1358.59 1117.55 1357.83 1115.76L1355.12 1109.38C1354.78 1108.58 1353.96 1108.09 1353.1 1108.17L1346.19 1108.78C1344.26 1108.95 1343.23 1106.55 1344.7 1105.28L1349.92 1100.72C1350.58 1100.15 1350.79 1099.23 1350.45 1098.43L1347.74 1092.05C1346.98 1090.26 1348.94 1088.55 1350.61 1089.55L1356.56 1093.11C1357.3 1093.56 1358.25 1093.47 1358.9 1092.9L1364.13 1088.35Z" fill="url(#paint8_linear_306_2)" shape-rendering="crispEdges"/>
<path d="M1364.19 1088.42C1365.58 1087.21 1367.71 1088.49 1367.3 1090.28L1365.75 1097.04C1365.54 1097.93 1365.93 1098.85 1366.72 1099.32L1372.66 1102.88C1374.24 1103.83 1373.69 1106.25 1371.85 1106.41L1364.95 1107.02C1364.04 1107.1 1363.29 1107.76 1363.08 1108.64L1361.53 1115.4C1361.12 1117.2 1358.65 1117.42 1357.92 1115.72L1355.21 1109.34C1354.85 1108.5 1353.99 1107.99 1353.09 1108.07L1346.18 1108.68C1344.34 1108.84 1343.37 1106.56 1344.76 1105.35L1349.99 1100.8C1350.68 1100.2 1350.9 1099.23 1350.54 1098.39L1347.83 1092.01C1347.11 1090.31 1348.98 1088.68 1350.56 1089.63L1356.5 1093.2C1357.29 1093.66 1358.28 1093.58 1358.97 1092.98L1364.19 1088.42Z" stroke="#0BB473" stroke-width="0.20031" shape-rendering="crispEdges"/>
</g>
<g filter="url(#filter14_d_306_2)">
<path d="M1210.42 2038.93C1210.67 2037.15 1213.06 2036.73 1213.9 2038.32L1216.91 2044.01C1217.29 2044.72 1218.08 2045.11 1218.87 2044.97L1225.21 2043.87C1226.99 2043.56 1228.12 2045.7 1226.87 2047L1222.39 2051.62C1221.83 2052.2 1221.7 2053.07 1222.08 2053.78L1225.09 2059.47C1225.93 2061.06 1224.24 2062.8 1222.62 2062.01L1216.85 2059.18C1216.12 2058.82 1215.25 2058.97 1214.69 2059.55L1210.21 2064.17C1208.96 2065.46 1206.78 2064.4 1207.04 2062.61L1207.95 2056.24C1208.06 2055.44 1207.65 2054.66 1206.92 2054.31L1201.14 2051.48C1199.53 2050.68 1199.87 2048.28 1201.64 2047.97L1207.99 2046.87C1208.78 2046.73 1209.39 2046.1 1209.51 2045.3L1210.42 2038.93Z" fill="url(#paint9_linear_306_2)" shape-rendering="crispEdges"/>
<path d="M1210.51 2038.94C1210.75 2037.25 1213.02 2036.85 1213.82 2038.37L1216.83 2044.06C1217.22 2044.8 1218.06 2045.21 1218.89 2045.07L1225.23 2043.96C1226.92 2043.67 1227.99 2045.7 1226.8 2046.93L1222.32 2051.55C1221.73 2052.16 1221.6 2053.08 1222 2053.83L1225.01 2059.51C1225.81 2061.03 1224.2 2062.68 1222.67 2061.93L1216.89 2059.09C1216.13 2058.72 1215.21 2058.88 1214.63 2059.49L1210.14 2064.11C1208.95 2065.33 1206.89 2064.32 1207.13 2062.63L1208.04 2056.25C1208.16 2055.42 1207.72 2054.6 1206.96 2054.23L1201.19 2051.39C1199.65 2050.64 1199.97 2048.36 1201.66 2048.07L1208 2046.96C1208.83 2046.82 1209.48 2046.15 1209.6 2045.31L1210.51 2038.94Z" stroke="#0BB473" stroke-width="0.185956" shape-rendering="crispEdges"/>
</g>
<g filter="url(#filter15_d_306_2)">
<path d="M1419.81 2088.43C1421.39 2087.29 1423.49 2088.83 1422.89 2090.68L1420.73 2097.26C1420.46 2098.09 1420.75 2098.99 1421.45 2099.51L1427.05 2103.6C1428.61 2104.74 1427.8 2107.22 1425.86 2107.22L1418.93 2107.2C1418.06 2107.2 1417.29 2107.75 1417.02 2108.58L1414.86 2115.16C1414.25 2117.01 1411.64 2117 1411.05 2115.15L1408.92 2108.55C1408.66 2107.73 1407.89 2107.17 1407.02 2107.16L1400.09 2107.15C1398.15 2107.14 1397.35 2104.65 1398.92 2103.52L1404.54 2099.46C1405.24 2098.95 1405.54 2098.05 1405.28 2097.22L1403.15 2090.62C1402.56 2088.77 1404.67 2087.25 1406.24 2088.39L1411.84 2092.48C1412.54 2092.99 1413.49 2093 1414.19 2092.49L1419.81 2088.43Z" fill="url(#paint10_linear_306_2)" shape-rendering="crispEdges"/>
<path d="M1419.87 2088.51C1421.37 2087.43 1423.37 2088.89 1422.79 2090.65L1420.63 2097.23C1420.35 2098.1 1420.65 2099.05 1421.39 2099.59L1426.99 2103.68C1428.48 2104.77 1427.7 2107.12 1425.86 2107.12L1418.93 2107.1C1418.02 2107.1 1417.21 2107.68 1416.92 2108.55L1414.76 2115.13C1414.19 2116.88 1411.71 2116.88 1411.14 2115.12L1409.02 2108.52C1408.74 2107.66 1407.93 2107.07 1407.02 2107.06L1400.09 2107.05C1398.25 2107.04 1397.49 2104.68 1398.98 2103.6L1404.6 2099.54C1405.34 2099.01 1405.65 2098.06 1405.37 2097.19L1403.25 2090.59C1402.68 2088.84 1404.69 2087.38 1406.18 2088.47L1411.78 2092.56C1412.51 2093.1 1413.51 2093.1 1414.25 2092.57L1419.87 2088.51Z" stroke="#0BB473" stroke-width="0.20031" shape-rendering="crispEdges"/>
</g>
<g filter="url(#filter16_d_306_2)">
<path d="M260.385 940.922C260.126 939.762 261.503 938.95 262.394 939.736L265.577 942.546C265.976 942.898 266.555 942.953 267.013 942.683L270.669 940.524C271.693 939.92 272.891 940.978 272.419 942.069L270.729 945.964C270.518 946.452 270.645 947.02 271.043 947.372L274.226 950.182C275.117 950.969 274.481 952.436 273.298 952.323L269.071 951.921C268.542 951.87 268.04 952.166 267.829 952.654L266.14 956.549C265.667 957.64 264.075 957.488 263.817 956.328L262.894 952.184C262.778 951.665 262.342 951.28 261.812 951.229L257.585 950.827C256.402 950.714 256.055 949.153 257.078 948.549L260.734 946.39C261.192 946.12 261.424 945.586 261.308 945.067L260.385 940.922Z" fill="url(#paint11_linear_306_2)" shape-rendering="crispEdges"/>
<path d="M260.445 940.909C260.199 939.807 261.507 939.035 262.354 939.782L265.537 942.592C265.955 942.962 266.564 943.02 267.044 942.736L270.7 940.577C271.673 940.003 272.811 941.008 272.362 942.044L270.673 945.94C270.451 946.452 270.584 947.049 271.002 947.418L274.185 950.228C275.032 950.975 274.427 952.369 273.304 952.262L269.077 951.859C268.521 951.807 267.995 952.117 267.773 952.629L266.083 956.525C265.634 957.561 264.122 957.417 263.877 956.315L262.953 952.17C262.832 951.626 262.374 951.221 261.818 951.168L257.591 950.765C256.467 950.658 256.137 949.176 257.109 948.602L260.766 946.443C261.246 946.159 261.489 945.598 261.368 945.054L260.445 940.909Z" stroke="#0BB473" stroke-width="0.122678" shape-rendering="crispEdges"/>
</g>
<g filter="url(#filter17_d_306_2)">
<path d="M223.385 573.922C223.126 572.762 224.503 571.95 225.394 572.736L228.577 575.546C228.976 575.898 229.555 575.953 230.013 575.683L233.669 573.524C234.693 572.92 235.891 573.978 235.419 575.069L233.729 578.964C233.518 579.452 233.645 580.02 234.043 580.372L237.226 583.182C238.117 583.969 237.481 585.436 236.298 585.323L232.071 584.921C231.542 584.87 231.04 585.166 230.829 585.654L229.14 589.549C228.667 590.64 227.075 590.488 226.817 589.328L225.894 585.184C225.778 584.665 225.342 584.28 224.812 584.229L220.585 583.827C219.402 583.714 219.055 582.153 220.078 581.549L223.734 579.39C224.192 579.12 224.424 578.586 224.308 578.067L223.385 573.922Z" fill="url(#paint12_linear_306_2)" shape-rendering="crispEdges"/>
<path d="M223.445 573.909C223.199 572.807 224.507 572.035 225.354 572.782L228.537 575.592C228.955 575.962 229.564 576.02 230.044 575.736L233.7 573.577C234.673 573.003 235.811 574.008 235.362 575.044L233.673 578.94C233.451 579.452 233.584 580.049 234.002 580.418L237.185 583.228C238.032 583.975 237.427 585.369 236.304 585.262L232.077 584.859C231.521 584.807 230.995 585.117 230.773 585.629L229.083 589.525C228.634 590.561 227.122 590.417 226.877 589.315L225.953 585.17C225.832 584.626 225.374 584.221 224.818 584.168L220.591 583.765C219.467 583.658 219.137 582.176 220.109 581.602L223.766 579.443C224.246 579.159 224.489 578.598 224.368 578.054L223.445 573.909Z" stroke="#0BB473" stroke-width="0.122678" shape-rendering="crispEdges"/>
</g>
<g filter="url(#filter18_d_306_2)">
<path d="M822.385 440.923C822.126 439.763 823.503 438.95 824.394 439.736L827.577 442.546C827.976 442.898 828.555 442.953 829.013 442.683L832.669 440.524C833.693 439.92 834.891 440.978 834.419 442.069L832.729 445.964C832.518 446.452 832.645 447.02 833.043 447.372L836.226 450.182C837.117 450.969 836.481 452.436 835.298 452.323L831.071 451.921C830.542 451.87 830.04 452.166 829.829 452.654L828.14 456.55C827.667 457.64 826.075 457.488 825.817 456.328L824.894 452.184C824.778 451.665 824.342 451.28 823.812 451.229L819.585 450.827C818.402 450.714 818.055 449.153 819.078 448.549L822.734 446.39C823.192 446.12 823.424 445.586 823.308 445.067L822.385 440.923Z" fill="url(#paint13_linear_306_2)" shape-rendering="crispEdges"/>
<path d="M822.445 440.909C822.199 439.807 823.507 439.035 824.354 439.782L827.537 442.592C827.955 442.962 828.564 443.02 829.044 442.736L832.7 440.577C833.673 440.003 834.811 441.009 834.362 442.044L832.673 445.94C832.451 446.452 832.584 447.049 833.002 447.418L836.185 450.228C837.032 450.976 836.427 452.369 835.304 452.262L831.077 451.86C830.521 451.807 829.995 452.118 829.773 452.629L828.083 456.525C827.634 457.561 826.122 457.417 825.877 456.315L824.953 452.17C824.832 451.626 824.374 451.221 823.818 451.168L819.591 450.766C818.467 450.659 818.137 449.176 819.109 448.602L822.766 446.443C823.246 446.159 823.489 445.598 823.368 445.054L822.445 440.909Z" stroke="#0BB473" stroke-width="0.122678" shape-rendering="crispEdges"/>
</g>
<g filter="url(#filter19_d_306_2)">
<path d="M704.479 1043.59C704.01 1041.71 706.225 1040.33 707.711 1041.58L713.021 1046.03C713.686 1046.59 714.634 1046.66 715.37 1046.2L721.251 1042.52C722.896 1041.5 724.896 1043.18 724.169 1044.97L721.57 1051.4C721.245 1052.21 721.475 1053.13 722.14 1053.69L727.45 1058.14C728.936 1059.39 727.958 1061.81 726.022 1061.68L719.106 1061.19C718.24 1061.13 717.434 1061.63 717.109 1062.44L714.51 1068.87C713.783 1070.67 711.179 1070.48 710.71 1068.6L709.034 1061.87C708.824 1061.03 708.096 1060.42 707.23 1060.36L700.314 1059.87C698.378 1059.74 697.747 1057.21 699.393 1056.18L705.273 1052.5C706.009 1052.04 706.365 1051.16 706.156 1050.32L704.479 1043.59Z" fill="url(#paint14_linear_306_2)" shape-rendering="crispEdges"/>
<path d="M704.577 1043.57C704.131 1041.78 706.235 1040.47 707.647 1041.65L712.957 1046.11C713.655 1046.7 714.651 1046.77 715.423 1046.28L721.304 1042.61C722.867 1041.63 724.767 1043.23 724.076 1044.94L721.478 1051.36C721.136 1052.21 721.377 1053.18 722.075 1053.76L727.386 1058.22C728.798 1059.41 727.868 1061.71 726.029 1061.58L719.113 1061.09C718.204 1061.03 717.357 1061.56 717.016 1062.4L714.418 1068.83C713.727 1070.54 711.252 1070.37 710.807 1068.58L709.131 1061.85C708.91 1060.96 708.146 1060.32 707.237 1060.26L700.321 1059.77C698.482 1059.65 697.882 1057.24 699.446 1056.26L705.326 1052.59C706.099 1052.11 706.473 1051.18 706.253 1050.3L704.577 1043.57Z" stroke="#0BB473" stroke-width="0.20031" shape-rendering="crispEdges"/>
</g>
<g filter="url(#filter20_d_306_2)">
<path d="M486.98 90.4116C484.786 94.2114 479.049 93.2306 478.241 88.9176L474.222 67.4505C473.968 66.0945 473.134 64.9171 471.939 64.2272L453.027 53.3048C449.227 51.1103 450.208 45.373 454.521 44.5655L475.988 40.5459C477.344 40.292 478.521 39.4584 479.211 38.2638L490.133 19.3509C492.328 15.5511 498.065 16.5319 498.873 20.8449L502.892 42.312C503.146 43.668 503.98 44.8454 505.174 45.5353L524.087 56.4577C527.887 58.6521 526.906 64.3894 522.593 65.197L501.126 69.2166C499.77 69.4705 498.593 70.3041 497.903 71.4987L486.98 90.4116Z" fill="url(#paint15_linear_306_2)" shape-rendering="crispEdges"/>
<path d="M486.776 90.2934C484.691 93.9032 479.241 92.9715 478.473 88.8741L474.454 67.407C474.187 65.9832 473.312 64.7469 472.058 64.0225L453.145 53.1001C449.535 51.0154 450.467 45.565 454.564 44.7978L476.031 40.7782C477.455 40.5116 478.691 39.6363 479.416 38.3819L490.338 19.4691C492.423 15.8593 497.873 16.791 498.64 20.8883L502.66 42.3555C502.927 43.7793 503.802 45.0156 505.056 45.74L523.969 56.6624C527.579 58.7471 526.647 64.1975 522.55 64.9647L501.083 68.9843C499.659 69.2509 498.423 70.1262 497.698 71.3805L486.776 90.2934Z" stroke="#0BB473" stroke-width="0.472681" shape-rendering="crispEdges"/>
</g>
<g filter="url(#filter21_d_306_2)">
<path d="M61.1242 594.658C66.5653 600.936 61.2598 610.595 53.0427 609.371L12.1436 603.278C9.56016 602.893 6.93751 603.656 4.96371 605.367L-26.2843 632.448C-32.5623 637.889 -42.2213 632.584 -40.9972 624.367L-34.9044 583.468C-34.5195 580.884 -35.2825 578.262 -36.9931 576.288L-64.0749 545.04C-69.5159 538.762 -64.2105 529.103 -55.9934 530.327L-15.0943 536.42C-12.5108 536.805 -9.88819 536.042 -7.91439 534.331L23.3336 507.249C29.6117 501.808 39.2706 507.114 38.0465 515.331L31.9537 556.23C31.5688 558.813 32.3318 561.436 34.0424 563.41L61.1242 594.658Z" fill="url(#paint16_linear_306_2)" shape-rendering="crispEdges"/>
<path d="M60.7861 594.951C65.9551 600.915 60.9149 610.091 53.1086 608.928L12.2095 602.835C9.49692 602.431 6.74315 603.232 4.67065 605.028L-26.5773 632.11C-32.5415 637.279 -41.7175 632.239 -40.5546 624.433L-34.4618 583.534C-34.0577 580.821 -34.8588 578.067 -36.655 575.995L-63.7368 544.747C-68.9057 538.783 -63.8655 529.607 -56.0593 530.77L-15.1602 536.862C-12.4476 537.266 -9.69383 536.465 -7.62134 534.669L23.6266 507.587C29.5908 502.418 38.7668 507.459 37.6039 515.265L31.5111 556.164C31.107 558.876 31.9081 561.63 33.7043 563.703L60.7861 594.951Z" stroke="#0BB473" stroke-width="0.894934" shape-rendering="crispEdges"/>
</g>
<g filter="url(#filter22_d_306_2)">
<path d="M162.371 782.639C165.65 782.866 166.878 787.049 164.241 789.012L151.116 798.778C150.287 799.395 149.769 800.344 149.698 801.375L148.569 817.695C148.342 820.974 144.158 822.202 142.196 819.565L132.429 806.44C131.812 805.611 130.864 805.093 129.833 805.022L113.512 803.893C110.233 803.666 109.006 799.483 111.643 797.52L124.767 787.753C125.596 787.137 126.115 786.188 126.186 785.157L127.315 768.837C127.542 765.558 131.725 764.33 133.687 766.967L143.454 780.091C144.071 780.921 145.02 781.439 146.05 781.51L162.371 782.639Z" fill="url(#paint17_linear_306_2)" shape-rendering="crispEdges"/>
<path d="M162.359 782.815C165.474 783.031 166.64 787.005 164.135 788.87L151.011 798.636C150.14 799.284 149.596 800.28 149.521 801.362L148.392 817.683C148.177 820.798 144.202 821.964 142.338 819.459L132.571 806.335C131.924 805.464 130.928 804.92 129.845 804.845L113.525 803.716C110.41 803.501 109.244 799.526 111.749 797.662L124.873 787.895C125.744 787.248 126.288 786.252 126.362 785.17L127.491 768.849C127.707 765.734 131.681 764.568 133.545 767.073L143.312 780.197C143.96 781.068 144.956 781.612 146.038 781.687L162.359 782.815Z" stroke="#0BB473" stroke-width="0.354069" shape-rendering="crispEdges"/>
</g>
<g filter="url(#filter23_d_306_2)">
<path d="M1089.23 1672.65C1092.48 1676.13 1089.66 1681.78 1084.92 1681.26L1061.36 1678.67C1059.87 1678.51 1058.39 1679 1057.3 1680.03L1040 1696.23C1036.52 1699.48 1030.87 1696.66 1031.39 1691.92L1033.98 1668.36C1034.14 1666.87 1033.65 1665.39 1032.62 1664.3L1016.42 1647C1013.17 1643.52 1015.99 1637.87 1020.73 1638.39L1044.29 1640.98C1045.77 1641.14 1047.26 1640.65 1048.35 1639.62L1065.65 1623.42C1069.13 1620.17 1074.78 1622.99 1074.26 1627.73L1071.67 1651.29C1071.51 1652.77 1072 1654.26 1073.03 1655.35L1089.23 1672.65Z" fill="url(#paint18_linear_306_2)" shape-rendering="crispEdges"/>
<path d="M1089.04 1672.83C1092.13 1676.13 1089.45 1681.5 1084.95 1681L1061.39 1678.42C1059.83 1678.24 1058.27 1678.76 1057.12 1679.84L1039.82 1696.04C1036.52 1699.13 1031.15 1696.45 1031.65 1691.95L1034.23 1668.39C1034.4 1666.83 1033.88 1665.27 1032.81 1664.12L1016.61 1646.82C1013.52 1643.52 1016.2 1638.15 1020.7 1638.65L1044.26 1641.23C1045.82 1641.4 1047.38 1640.88 1048.53 1639.81L1065.83 1623.61C1069.13 1620.52 1074.5 1623.2 1074 1627.7L1071.42 1651.26C1071.24 1652.82 1071.76 1654.38 1072.84 1655.53L1089.04 1672.83Z" stroke="#0BB473" stroke-width="0.512964" shape-rendering="crispEdges"/>
</g>
<g filter="url(#filter24_d_306_2)">
<path d="M611.928 1689.22C612.854 1690.21 612.05 1691.82 610.704 1691.67L604.003 1690.93C603.58 1690.89 603.157 1691.03 602.847 1691.32L597.926 1695.93C596.938 1696.85 595.331 1696.05 595.479 1694.7L596.214 1688C596.261 1687.58 596.12 1687.16 595.829 1686.85L591.221 1681.93C590.295 1680.94 591.099 1679.33 592.445 1679.48L599.146 1680.21C599.569 1680.26 599.992 1680.12 600.303 1679.83L605.223 1675.22C606.211 1674.3 607.818 1675.1 607.67 1676.45L606.935 1683.15C606.888 1683.57 607.029 1683.99 607.32 1684.3L611.928 1689.22Z" fill="url(#paint19_linear_306_2)" shape-rendering="crispEdges"/>
<path d="M611.875 1689.27C612.754 1690.21 611.991 1691.74 610.712 1691.6L604.011 1690.86C603.567 1690.81 603.123 1690.96 602.797 1691.27L597.876 1695.87C596.937 1696.75 595.411 1695.99 595.551 1694.71L596.287 1688.01C596.336 1687.57 596.188 1687.12 595.882 1686.8L591.274 1681.88C590.395 1680.94 591.158 1679.41 592.437 1679.55L599.138 1680.29C599.583 1680.34 600.026 1680.19 600.352 1679.88L605.273 1675.27C606.212 1674.39 607.738 1675.16 607.598 1676.44L606.862 1683.14C606.813 1683.58 606.961 1684.03 607.267 1684.35L611.875 1689.27Z" stroke="#0BB473" stroke-width="0.145895" shape-rendering="crispEdges"/>
</g>
<g filter="url(#filter25_d_306_2)">
<path d="M898.655 43.8745C900.005 45.3165 898.833 47.6602 896.869 47.4446L887.095 46.3714C886.478 46.3036 885.861 46.5089 885.408 46.9335L878.231 53.6548C876.789 55.0052 874.445 53.833 874.661 51.8693L875.734 42.0951C875.802 41.4777 875.597 40.8615 875.172 40.4081L868.451 33.231C867.1 31.7891 868.272 29.4453 870.236 29.6609L880.01 30.7341C880.628 30.8019 881.244 30.5966 881.697 30.172L888.874 23.4507C890.316 22.1003 892.66 23.2725 892.445 25.2363L891.371 35.0105C891.304 35.6279 891.509 36.2441 891.933 36.6974L898.655 43.8745Z" fill="url(#paint20_linear_306_2)" shape-rendering="crispEdges"/>
<path d="M898.577 43.9472C899.86 45.3171 898.746 47.5437 896.881 47.3388L887.107 46.2656C886.458 46.1945 885.811 46.41 885.335 46.8558L878.158 53.5772C876.788 54.86 874.562 53.7464 874.767 51.8809L875.84 42.1067C875.911 41.4584 875.695 40.8114 875.25 40.3354L868.528 33.1583C867.245 31.7884 868.359 29.5619 870.225 29.7667L879.999 30.8399C880.647 30.9111 881.294 30.6955 881.77 30.2497L888.947 23.5284C890.317 22.2455 892.544 23.3591 892.339 25.2247L891.266 34.9989C891.194 35.6471 891.41 36.2942 891.856 36.7702L898.577 43.9472Z" stroke="#0BB473" stroke-width="0.212811" shape-rendering="crispEdges"/>
</g>
<g filter="url(#filter26_d_306_2)">
<path d="M552.549 769.56C554.139 769.24 555.268 771.071 554.269 772.348L549.296 778.706C548.982 779.108 548.859 779.626 548.959 780.126L550.548 788.039C550.868 789.629 549.037 790.758 547.76 789.759L541.402 784.786C541 784.472 540.482 784.349 539.982 784.45L532.069 786.039C530.479 786.358 529.35 784.527 530.349 783.25L535.322 776.893C535.636 776.491 535.759 775.972 535.658 775.472L534.069 767.559C533.75 765.969 535.581 764.84 536.858 765.839L543.215 770.812C543.617 771.126 544.136 771.249 544.636 771.149L552.549 769.56Z" fill="url(#paint21_linear_306_2)" shape-rendering="crispEdges"/>
<path d="M552.566 769.645C554.077 769.342 555.149 771.081 554.2 772.295L549.227 778.652C548.897 779.074 548.768 779.618 548.874 780.143L550.463 788.057C550.766 789.567 549.027 790.64 547.813 789.691L541.456 784.718C541.034 784.388 540.49 784.259 539.965 784.364L532.051 785.953C530.541 786.257 529.468 784.517 530.417 783.304L535.39 776.946C535.72 776.525 535.849 775.98 535.744 775.455L534.155 767.542C533.851 766.031 535.591 764.959 536.804 765.908L543.162 770.881C543.583 771.211 544.128 771.34 544.653 771.234L552.566 769.645Z" stroke="#0BB473" stroke-width="0.174685" shape-rendering="crispEdges"/>
</g>
<g filter="url(#filter27_d_306_2)">
<path d="M1000.45 713.357C1001.56 714.536 1000.61 716.464 998.997 716.293L990.971 715.444C990.464 715.39 989.959 715.561 989.588 715.911L983.719 721.451C982.539 722.564 980.612 721.61 980.782 719.997L981.632 711.971C981.685 711.464 981.515 710.959 981.165 710.588L975.624 704.718C974.511 703.539 975.466 701.611 977.078 701.782L985.105 702.631C985.612 702.685 986.117 702.514 986.488 702.165L992.357 696.624C993.537 695.511 995.464 696.466 995.294 698.078L994.444 706.105C994.391 706.612 994.561 707.117 994.911 707.488L1000.45 713.357Z" fill="url(#paint22_linear_306_2)" shape-rendering="crispEdges"/>
<path d="M1000.39 713.417C1001.45 714.537 1000.54 716.369 999.007 716.206L990.98 715.357C990.448 715.301 989.917 715.48 989.528 715.847L983.659 721.388C982.538 722.445 980.707 721.538 980.869 720.006L981.718 711.98C981.775 711.448 981.596 710.917 981.228 710.528L975.688 704.658C974.63 703.538 975.537 701.707 977.069 701.869L985.096 702.718C985.628 702.775 986.159 702.595 986.548 702.228L992.417 696.688C993.538 695.63 995.369 696.537 995.207 698.069L994.357 706.096C994.301 706.628 994.48 707.158 994.848 707.548L1000.39 713.417Z" stroke="#0BB473" stroke-width="0.174685" shape-rendering="crispEdges"/>
</g>
<g filter="url(#filter28_d_306_2)">
<path d="M331.641 1757.33C333.599 1757.06 334.83 1759.38 333.516 1760.85L326.978 1768.2C326.565 1768.66 326.375 1769.28 326.458 1769.9L327.777 1779.64C328.042 1781.6 325.729 1782.83 324.253 1781.52L316.909 1774.98C316.445 1774.56 315.824 1774.38 315.209 1774.46L305.465 1775.78C303.507 1776.04 302.276 1773.73 303.59 1772.25L310.128 1764.91C310.541 1764.45 310.731 1763.82 310.647 1763.21L309.328 1753.46C309.063 1751.51 311.377 1750.28 312.852 1751.59L320.196 1758.13C320.66 1758.54 321.282 1758.73 321.897 1758.65L331.641 1757.33Z" fill="url(#paint23_linear_306_2)" shape-rendering="crispEdges"/>
<path d="M331.655 1757.43C333.515 1757.18 334.685 1759.38 333.437 1760.78L326.898 1768.13C326.465 1768.61 326.265 1769.27 326.353 1769.91L327.672 1779.66C327.924 1781.52 325.726 1782.68 324.324 1781.44L316.98 1774.9C316.493 1774.46 315.841 1774.27 315.194 1774.35L305.45 1775.67C303.591 1775.92 302.421 1773.73 303.669 1772.32L310.208 1764.98C310.641 1764.49 310.84 1763.84 310.753 1763.19L309.434 1753.45C309.182 1751.59 311.38 1750.42 312.782 1751.67L320.126 1758.21C320.613 1758.64 321.265 1758.84 321.911 1758.75L331.655 1757.43Z" stroke="#0BB473" stroke-width="0.212811" shape-rendering="crispEdges"/>
</g>
<g filter="url(#filter29_d_306_2)">
<path d="M1031.87 1483.56C1033.83 1483.29 1035.06 1485.61 1033.75 1487.08L1027.21 1494.43C1026.8 1494.89 1026.61 1495.51 1026.69 1496.13L1028.01 1505.87C1028.27 1507.83 1025.96 1509.06 1024.48 1507.75L1017.14 1501.21C1016.68 1500.8 1016.05 1500.61 1015.44 1500.69L1005.7 1502.01C1003.74 1502.27 1002.51 1499.96 1003.82 1498.48L1010.36 1491.14C1010.77 1490.68 1010.96 1490.05 1010.88 1489.44L1009.56 1479.7C1009.29 1477.74 1011.61 1476.51 1013.08 1477.82L1020.43 1484.36C1020.89 1484.77 1021.51 1484.96 1022.13 1484.88L1031.87 1483.56Z" fill="url(#paint24_linear_306_2)" shape-rendering="crispEdges"/>
<path d="M1031.89 1483.66C1033.75 1483.41 1034.92 1485.61 1033.67 1487.01L1027.13 1494.36C1026.7 1494.84 1026.5 1495.5 1026.58 1496.14L1027.9 1505.89C1028.15 1507.75 1025.96 1508.92 1024.55 1507.67L1017.21 1501.13C1016.72 1500.7 1016.07 1500.5 1015.42 1500.58L1005.68 1501.9C1003.82 1502.15 1002.65 1499.96 1003.9 1498.55L1010.44 1491.21C1010.87 1490.72 1011.07 1490.07 1010.98 1489.42L1009.66 1479.68C1009.41 1477.82 1011.61 1476.65 1013.01 1477.9L1020.36 1484.44C1020.84 1484.87 1021.5 1485.07 1022.14 1484.98L1031.89 1483.66Z" stroke="#0BB473" stroke-width="0.212811" shape-rendering="crispEdges"/>
</g>
<g filter="url(#filter30_d_306_2)">
<path d="M408.945 1965.3C410.036 1966.39 409.187 1968.25 407.651 1968.13L400.007 1967.56C399.525 1967.53 399.05 1967.71 398.709 1968.05L393.301 1973.48C392.214 1974.57 390.357 1973.72 390.471 1972.19L391.04 1964.54C391.076 1964.06 390.9 1963.59 390.556 1963.24L385.125 1957.84C384.033 1956.75 384.882 1954.89 386.418 1955.01L394.062 1955.58C394.545 1955.61 395.019 1955.44 395.361 1955.09L400.768 1949.66C401.855 1948.57 403.713 1949.42 403.598 1950.95L403.029 1958.6C402.993 1959.08 403.17 1959.55 403.513 1959.9L408.945 1965.3Z" fill="url(#paint25_linear_306_2)" shape-rendering="crispEdges"/>
<path d="M408.886 1965.36C409.923 1966.39 409.116 1968.16 407.657 1968.05L400.014 1967.48C399.507 1967.44 399.008 1967.63 398.65 1967.99L393.242 1973.42C392.21 1974.46 390.445 1973.65 390.554 1972.19L391.123 1964.55C391.161 1964.04 390.975 1963.54 390.615 1963.19L385.183 1957.78C384.146 1956.75 384.953 1954.98 386.412 1955.09L394.056 1955.66C394.563 1955.7 395.061 1955.51 395.419 1955.15L400.827 1949.72C401.859 1948.68 403.624 1949.49 403.516 1950.95L402.946 1958.59C402.908 1959.1 403.094 1959.6 403.454 1959.96L408.886 1965.36Z" stroke="#0BB473" stroke-width="0.165886" shape-rendering="crispEdges"/>
</g>
<g filter="url(#filter31_d_306_2)">
<path d="M147.614 1991.4C149.149 1991.27 150.016 1993.12 148.935 1994.21L143.555 1999.67C143.215 2000.02 143.043 2000.49 143.084 2000.98L143.726 2008.61C143.856 2010.15 142.006 2011.02 140.909 2009.93L135.45 2004.56C135.105 2004.22 134.629 2004.04 134.146 2004.08L126.508 2004.73C124.974 2004.86 124.107 2003.01 125.188 2001.91L130.567 1996.45C130.907 1996.1 131.079 1995.63 131.039 1995.15L130.396 1987.51C130.267 1985.97 132.116 1985.11 133.213 1986.19L138.673 1991.57C139.018 1991.91 139.494 1992.08 139.976 1992.04L147.614 1991.4Z" fill="url(#paint26_linear_306_2)" shape-rendering="crispEdges"/>
<path d="M147.621 1991.48C149.079 1991.36 149.903 1993.11 148.876 1994.16L143.496 1999.61C143.139 1999.98 142.958 2000.48 143.001 2000.98L143.644 2008.62C143.766 2010.08 142.009 2010.9 140.967 2009.88L135.508 2004.5C135.146 2004.14 134.646 2003.96 134.139 2004L126.501 2004.64C125.044 2004.77 124.22 2003.01 125.247 2001.97L130.626 1996.51C130.983 1996.15 131.164 1995.65 131.121 1995.14L130.479 1987.5C130.356 1986.04 132.113 1985.22 133.155 1986.25L138.615 1991.63C138.977 1991.98 139.477 1992.16 139.983 1992.12L147.621 1991.48Z" stroke="#0BB473" stroke-width="0.165886" shape-rendering="crispEdges"/>
</g>
<g filter="url(#filter32_d_306_2)">
<path d="M996.631 953.077C998.235 954.23 997.539 956.757 995.571 956.926L985.774 957.767C985.155 957.82 984.59 958.141 984.228 958.646L978.49 966.63C977.337 968.235 974.81 967.539 974.641 965.571L973.8 955.774C973.746 955.155 973.426 954.59 972.921 954.228L964.936 948.489C963.332 947.337 964.028 944.81 965.996 944.641L975.793 943.799C976.412 943.746 976.977 943.425 977.339 942.921L983.077 934.936C984.23 933.332 986.757 934.028 986.926 935.996L987.767 945.793C987.82 946.412 988.141 946.976 988.646 947.339L996.631 953.077Z" fill="url(#paint27_linear_306_2)" shape-rendering="crispEdges"/>
<path d="M996.568 953.164C998.093 954.259 997.432 956.659 995.562 956.82L985.765 957.661C985.115 957.717 984.522 958.054 984.141 958.583L978.403 966.568C977.308 968.092 974.908 967.431 974.747 965.562L973.906 955.765C973.85 955.115 973.513 954.522 972.983 954.141L964.998 948.403C963.474 947.308 964.135 944.908 966.005 944.747L975.802 943.905C976.452 943.85 977.045 943.513 977.425 942.983L983.164 934.998C984.259 933.474 986.659 934.135 986.82 936.005L987.661 945.802C987.717 946.452 988.054 947.045 988.584 947.425L996.568 953.164Z" stroke="#0BB473" stroke-width="0.212811" shape-rendering="crispEdges"/>
</g>
<g filter="url(#filter33_d_306_2)">
<path d="M498.469 974.561C500.804 977.054 498.777 981.106 495.382 980.733L478.485 978.878C477.417 978.76 476.352 979.115 475.569 979.849L463.161 991.469C460.668 993.803 456.616 991.777 456.989 988.382L458.844 971.485C458.962 970.417 458.607 969.352 457.873 968.568L446.253 956.161C443.919 953.668 445.945 949.616 449.34 949.989L466.237 951.844C467.305 951.961 468.37 951.607 469.154 950.873L481.561 939.253C484.054 936.918 488.106 938.945 487.733 942.34L485.878 959.237C485.76 960.304 486.115 961.37 486.849 962.153L498.469 974.561Z" fill="url(#paint28_linear_306_2)" shape-rendering="crispEdges"/>
<path d="M498.335 974.687C500.553 977.055 498.627 980.904 495.402 980.55L478.505 978.695C477.384 978.572 476.266 978.944 475.443 979.715L463.035 991.335C460.667 993.552 456.818 991.627 457.172 988.402L459.027 971.505C459.15 970.384 458.778 969.266 458.007 968.443L446.387 956.035C444.17 953.667 446.095 949.818 449.32 950.172L466.217 952.027C467.338 952.15 468.456 951.778 469.279 951.007L481.687 939.387C484.055 937.169 487.904 939.095 487.55 942.32L485.695 959.217C485.572 960.338 485.944 961.456 486.715 962.279L498.335 974.687Z" stroke="#0BB473" stroke-width="0.367901" shape-rendering="crispEdges"/>
</g>
<g filter="url(#filter34_d_306_2)">
<path d="M33.469 995.561C35.8035 998.054 33.777 1002.11 30.3822 1001.73L13.4848 999.878C12.4175 999.76 11.3522 1000.12 10.5685 1000.85L-1.839 1012.47C-4.33181 1014.8 -8.38358 1012.78 -8.01083 1009.38L-6.15556 992.485C-6.03837 991.417 -6.39331 990.352 -7.12728 989.568L-18.7469 977.161C-21.0814 974.668 -19.0549 970.616 -15.6601 970.989L1.23728 972.844C2.30461 972.961 3.36987 972.607 4.1536 971.873L16.5611 960.253C19.0539 957.918 23.1057 959.945 22.7329 963.34L20.8777 980.237C20.7605 981.304 21.1154 982.37 21.8494 983.153L33.469 995.561Z" fill="url(#paint29_linear_306_2)" shape-rendering="crispEdges"/>
<path d="M33.3348 995.687C35.5525 998.055 33.6274 1001.9 30.4022 1001.55L13.5049 999.695C12.3842 999.572 11.2657 999.944 10.4428 1000.71L-1.96474 1012.33C-4.33291 1014.55 -8.18209 1012.63 -7.82798 1009.4L-5.9727 992.505C-5.84966 991.384 -6.22235 990.266 -6.99301 989.443L-18.6126 977.035C-20.8304 974.667 -18.9053 970.818 -15.6801 971.172L1.2172 973.027C2.3379 973.15 3.45643 972.778 4.27935 972.007L16.6869 960.387C19.055 958.169 22.9042 960.095 22.5501 963.32L20.6948 980.217C20.5718 981.338 20.9445 982.456 21.7151 983.279L33.3348 995.687Z" stroke="#0BB473" stroke-width="0.367901" shape-rendering="crispEdges"/>
</g>
<g filter="url(#filter35_d_306_2)">
<path d="M724.939 815.658C726.402 813.275 730.06 814.157 730.277 816.945L731.051 826.905C731.148 828.151 732.037 829.194 733.252 829.487L742.964 831.828C745.682 832.483 745.974 836.234 743.39 837.302L734.157 841.116C733.001 841.594 732.284 842.761 732.381 844.008L733.156 853.968C733.372 856.755 729.895 858.192 728.081 856.064L721.6 848.461C720.789 847.51 719.458 847.189 718.302 847.666L709.069 851.481C706.484 852.548 704.044 849.685 705.507 847.303L710.735 838.789C711.389 837.724 711.283 836.358 710.472 835.407L703.991 827.804C702.177 825.676 704.145 822.47 706.864 823.125L716.576 825.467C717.791 825.76 719.057 825.237 719.712 824.171L724.939 815.658Z" fill="url(#paint30_linear_306_2)" shape-rendering="crispEdges"/>
<path d="M725.062 815.734C726.452 813.47 729.927 814.308 730.133 816.956L730.907 826.916C731.009 828.225 731.942 829.319 733.218 829.627L742.93 831.968C745.513 832.591 745.79 836.154 743.335 837.168L734.102 840.983C732.888 841.484 732.135 842.71 732.237 844.019L733.012 853.979C733.218 856.627 729.914 857.992 728.191 855.97L721.71 848.368C720.858 847.369 719.46 847.031 718.247 847.533L709.013 851.347C706.558 852.361 704.24 849.642 705.63 847.378L710.858 838.865C711.545 837.746 711.433 836.312 710.581 835.313L704.1 827.71C702.377 825.689 704.247 822.643 706.83 823.266L716.542 825.607C717.818 825.915 719.147 825.366 719.835 824.247L725.062 815.734Z" stroke="#0BB473" stroke-width="0.288633" shape-rendering="crispEdges"/>
</g>
<g filter="url(#filter36_d_306_2)">
<path d="M48.8383 1619.12C49.0688 1616.01 53.1477 1615.01 54.7908 1617.66L60.6616 1627.14C61.3964 1628.33 62.8118 1628.91 64.1676 1628.58L74.9991 1625.92C78.0307 1625.18 80.2415 1628.75 78.2254 1631.13L71.0222 1639.65C70.1206 1640.71 70.0076 1642.24 70.7425 1643.42L76.6132 1652.91C78.2563 1655.56 75.5437 1658.77 72.6546 1657.58L62.332 1653.36C61.04 1652.84 59.5548 1653.2 58.6532 1654.27L51.45 1662.78C49.4339 1665.16 45.5466 1663.57 45.7771 1660.46L46.6007 1649.34C46.7037 1647.95 45.8988 1646.65 44.6067 1646.12L34.2841 1641.9C31.395 1640.72 31.7052 1636.53 34.7367 1635.79L45.5683 1633.13C46.924 1632.8 47.9117 1631.63 48.0148 1630.24L48.8383 1619.12Z" fill="url(#paint31_linear_306_2)" shape-rendering="crispEdges"/>
<path d="M48.999 1619.13C49.2179 1616.18 53.0929 1615.23 54.6539 1617.75L60.5246 1627.23C61.2962 1628.47 62.7824 1629.08 64.2059 1628.73L75.0374 1626.08C77.9174 1625.37 80.0177 1628.77 78.1024 1631.03L70.8992 1639.54C69.9525 1640.66 69.8339 1642.26 70.6055 1643.51L76.4762 1652.99C78.0372 1655.51 75.4602 1658.56 72.7156 1657.44L62.393 1653.22C61.0364 1652.66 59.4769 1653.04 58.5302 1654.16L51.327 1662.67C49.4117 1664.94 45.7188 1663.43 45.9378 1660.47L46.7613 1649.35C46.8696 1647.89 46.0243 1646.52 44.6677 1645.97L34.3451 1641.75C31.6005 1640.63 31.8951 1636.65 34.775 1635.94L45.6066 1633.29C47.0301 1632.94 48.0672 1631.72 48.1754 1630.25L48.999 1619.13Z" stroke="#0BB473" stroke-width="0.322196" shape-rendering="crispEdges"/>
</g>
<g filter="url(#filter37_d_306_2)">
<path d="M255.086 6.1913C255.617 4.45163 258.064 4.4073 258.657 6.12662L260.777 12.2696C261.042 13.0385 261.772 13.5491 262.586 13.5344L269.083 13.4167C270.901 13.3838 271.7 15.6971 270.248 16.7926L265.061 20.7069C264.411 21.1969 264.151 22.0492 264.417 22.8181L266.536 28.9611C267.13 30.6804 265.176 32.1544 263.686 31.1122L258.36 27.3883C257.693 26.9222 256.802 26.9384 256.153 27.4283L250.966 31.3426C249.514 32.4381 247.508 31.0358 248.039 29.2962L249.935 23.0804C250.172 22.3024 249.882 21.4601 249.215 20.994L243.889 17.2701C242.399 16.2279 243.113 13.8872 244.931 13.8542L251.429 13.7365C252.242 13.7218 252.953 13.1851 253.19 12.4071L255.086 6.1913Z" fill="url(#paint32_linear_306_2)" shape-rendering="crispEdges"/>
<path d="M255.176 6.21869C255.68 4.566 258.005 4.52389 258.568 6.15724L260.688 12.3003C260.967 13.1076 261.733 13.6437 262.587 13.6283L269.085 13.5106C270.812 13.4793 271.571 15.6769 270.191 16.7177L265.004 20.632C264.322 21.1464 264.049 22.0413 264.328 22.8487L266.448 28.9917C267.011 30.625 265.155 32.0254 263.739 31.0353L258.414 27.3114C257.714 26.822 256.778 26.8389 256.097 27.3534L250.909 31.2677C249.53 32.3084 247.625 30.9762 248.129 29.3235L250.025 23.1078C250.274 22.2909 249.969 21.4064 249.269 20.917L243.943 17.1932C242.527 16.2031 243.205 13.9794 244.933 13.9481L251.43 13.8304C252.284 13.8149 253.031 13.2514 253.28 12.4344L255.176 6.21869Z" stroke="#0BB473" stroke-width="0.187752" shape-rendering="crispEdges"/>
</g>
<g filter="url(#filter38_d_306_2)">
<path d="M32.2654 203.228C35.1816 201.659 38.4011 204.739 36.9638 207.722L31.8283 218.38C31.1855 219.714 31.4748 221.31 32.5449 222.333L41.0944 230.511C43.4872 232.8 41.5533 236.813 38.2722 236.368L26.5488 234.778C25.0814 234.579 23.6527 235.347 23.0099 236.681L17.8744 247.339C16.4371 250.322 12.0224 249.723 11.4318 246.465L9.32186 234.824C9.05777 233.367 7.88548 232.245 6.4181 232.046L-5.30528 230.456C-8.58643 230.011 -9.38098 225.627 -6.4648 224.058L3.95455 218.454C5.2587 217.753 5.96287 216.291 5.69878 214.834L3.58882 203.193C2.99829 199.935 6.92198 197.825 9.31481 200.114L17.8643 208.291C18.9344 209.315 20.5419 209.533 21.846 208.832L32.2654 203.228Z" fill="url(#paint33_linear_306_2)" shape-rendering="crispEdges"/>
<path d="M32.3463 203.378C35.1167 201.888 38.1753 204.814 36.8098 207.647L31.6743 218.305C30.9994 219.706 31.3032 221.382 32.4268 222.457L40.9762 230.635C43.2494 232.809 41.4122 236.622 38.2951 236.199L26.5718 234.608C25.031 234.399 23.5309 235.206 22.856 236.607L17.7205 247.265C16.355 250.099 12.161 249.53 11.6 246.434L9.49003 234.793C9.21273 233.263 7.98183 232.086 6.44108 231.877L-5.2823 230.286C-8.39939 229.863 -9.15422 225.699 -6.38385 224.209L4.0355 218.605C5.40486 217.868 6.14424 216.334 5.86694 214.804L3.75699 203.163C3.19598 200.068 6.92349 198.063 9.19668 200.237L17.7461 208.415C18.8698 209.49 20.5576 209.719 21.927 208.982L32.3463 203.378Z" stroke="#0BB473" stroke-width="0.341812" shape-rendering="crispEdges"/>
</g>
<path d="M1257.54 743.051C1261.37 740.497 1266.23 744.333 1264.63 748.649L1258.63 764.882C1257.85 767.015 1258.52 769.414 1260.31 770.823L1273.89 781.545C1277.5 784.395 1275.36 790.203 1270.76 790.019L1253.47 789.33C1251.19 789.239 1249.12 790.622 1248.33 792.756L1242.33 808.989C1240.74 813.305 1234.55 813.058 1233.31 808.629L1228.62 791.97C1228 789.78 1226.05 788.237 1223.77 788.146L1206.48 787.457C1201.88 787.274 1200.21 781.314 1204.03 778.76L1218.43 769.153C1220.32 767.891 1221.18 765.554 1220.57 763.364L1215.88 746.705C1214.63 742.276 1219.78 738.839 1223.4 741.69L1236.98 752.412C1238.77 753.821 1241.25 753.92 1243.15 752.658L1257.54 743.051Z" fill="url(#paint34_linear_306_2)" stroke="#0BB473" stroke-width="0.5"/>
<path d="M1174.55 1038.61C1179.04 1037.6 1182.21 1042.92 1179.17 1046.38L1167.76 1059.39C1166.26 1061.1 1166.03 1063.58 1167.19 1065.53L1176.03 1080.41C1178.39 1084.36 1174.3 1089.02 1170.08 1087.2L1154.18 1080.36C1152.09 1079.47 1149.66 1080.01 1148.16 1081.72L1136.74 1094.73C1133.71 1098.19 1128.02 1095.75 1128.44 1091.16L1130.03 1073.93C1130.24 1071.67 1128.97 1069.52 1126.88 1068.63L1110.98 1061.79C1106.75 1059.97 1107.32 1053.81 1111.81 1052.79L1128.69 1048.98C1130.91 1048.48 1132.55 1046.6 1132.76 1044.34L1134.35 1027.11C1134.77 1022.52 1140.81 1021.16 1143.16 1025.11L1152 1039.99C1153.16 1041.94 1155.45 1042.93 1157.67 1042.43L1174.55 1038.61Z" fill="url(#paint35_linear_306_2)" stroke="#0BB473" stroke-width="0.5"/>
<path d="M1324.67 1811.05C1313.24 1815.85 1302.34 1803.22 1308.77 1792.61L1332.94 1752.73C1336.12 1747.48 1335.56 1740.79 1331.56 1736.15L1301.09 1700.83C1292.99 1691.44 1301.64 1677.17 1313.72 1680.01L1359.12 1690.67C1365.09 1692.08 1371.28 1689.48 1374.46 1684.23L1398.64 1644.35C1405.06 1633.74 1421.31 1637.56 1422.34 1649.91L1426.23 1696.4C1426.74 1702.5 1431.12 1707.59 1437.09 1708.99L1482.5 1719.66C1494.57 1722.49 1495.96 1739.12 1484.53 1743.92L1441.52 1761.98C1435.87 1764.36 1432.39 1770.1 1432.9 1776.21L1436.79 1822.69C1437.82 1835.05 1422.43 1841.51 1414.33 1832.12L1383.87 1796.8C1379.87 1792.16 1373.33 1790.62 1367.68 1792.99L1324.67 1811.05Z" fill="url(#paint36_linear_306_2)" stroke="#0BB473" stroke-width="1.34758"/>
<path d="M665.525 1831.83C662.876 1838.89 653.05 1839.32 649.795 1832.52L639.218 1810.41C637.582 1806.99 634.062 1804.88 630.274 1805.04L605.635 1806.12C596.81 1806.5 593.259 1794.89 600.79 1790.27L615.79 1781.08C619.92 1778.55 621.47 1773.31 619.379 1768.94L611.918 1753.34C608.405 1745.99 616.169 1738.35 623.456 1741.99L649.704 1755.08C652.623 1756.53 656.086 1756.38 658.866 1754.68L683.874 1739.35C690.817 1735.1 699.217 1742.03 696.357 1749.65L690.283 1765.84C688.582 1770.37 690.582 1775.46 694.918 1777.62L710.662 1785.48C718.567 1789.42 716.041 1801.3 707.216 1801.68L682.577 1802.76C678.789 1802.92 675.466 1805.33 674.135 1808.88L665.525 1831.83Z" fill="url(#paint37_linear_306_2)" stroke="#0BB473" stroke-width="0.900693"/>
<g filter="url(#filter39_f_306_2)">
<ellipse cx="357" cy="1691.5" rx="144" ry="19.5" fill="#FC9B2C" fill-opacity="0.55"/>
</g>
<defs>
<filter id="filter0_f_306_2" x="-62.5615" y="1630.34" width="236.196" height="371.781" filterUnits="userSpaceOnUse" color-interpolation-filters="sRGB">
<feFlood flood-opacity="0" result="BackgroundImageFix"/>
<feBlend mode="normal" in="SourceGraphic" in2="BackgroundImageFix" result="shape"/>
<feGaussianBlur stdDeviation="50" result="effect1_foregroundBlur_306_2"/>
</filter>
<filter id="filter1_f_306_2" x="-94.0105" y="652.329" width="236.736" height="412.298" filterUnits="userSpaceOnUse" color-interpolation-filters="sRGB">
<feFlood flood-opacity="0" result="BackgroundImageFix"/>
<feBlend mode="normal" in="SourceGraphic" in2="BackgroundImageFix" result="shape"/>
<feGaussianBlur stdDeviation="50" result="effect1_foregroundBlur_306_2"/>
</filter>
<filter id="filter2_f_306_2" x="475" y="497.324" width="623" height="399" filterUnits="userSpaceOnUse" color-interpolation-filters="sRGB">
<feFlood flood-opacity="0" result="BackgroundImageFix"/>
<feBlend mode="normal" in="SourceGraphic" in2="BackgroundImageFix" result="shape"/>
<feGaussianBlur stdDeviation="80" result="effect1_foregroundBlur_306_2"/>
</filter>
<filter id="filter3_f_306_2" x="1035" y="882" width="623" height="399" filterUnits="userSpaceOnUse" color-interpolation-filters="sRGB">
<feFlood flood-opacity="0" result="BackgroundImageFix"/>
<feBlend mode="normal" in="SourceGraphic" in2="BackgroundImageFix" result="shape"/>
<feGaussianBlur stdDeviation="80" result="effect1_foregroundBlur_306_2"/>
</filter>
<filter id="filter4_f_306_2" x="689" y="1616" width="623" height="365" filterUnits="userSpaceOnUse" color-interpolation-filters="sRGB">
<feFlood flood-opacity="0" result="BackgroundImageFix"/>
<feBlend mode="normal" in="SourceGraphic" in2="BackgroundImageFix" result="shape"/>
<feGaussianBlur stdDeviation="80" result="effect1_foregroundBlur_306_2"/>
</filter>
<filter id="filter5_d_306_2" x="1297.62" y="424.583" width="121.551" height="124.435" filterUnits="userSpaceOnUse" color-interpolation-filters="sRGB">
<feFlood flood-opacity="0" result="BackgroundImageFix"/>
<feColorMatrix in="SourceAlpha" type="matrix" values="0 0 0 0 0 0 0 0 0 0 0 0 0 0 0 0 0 0 127 0" result="hardAlpha"/>
<feOffset dy="5.76761"/>
<feGaussianBlur stdDeviation="1.4419"/>
<feComposite in2="hardAlpha" operator="out"/>
<feColorMatrix type="matrix" values="0 0 0 0 0.0431373 0 0 0 0 0.705882 0 0 0 0 0.45098 0 0 0 0.6 0"/>
<feBlend mode="normal" in2="BackgroundImageFix" result="effect1_dropShadow_306_2"/>
<feBlend mode="normal" in="SourceGraphic" in2="effect1_dropShadow_306_2" result="shape"/>
</filter>
<filter id="filter6_d_306_2" x="709.004" y="91.6116" width="26.929" height="27.8999" filterUnits="userSpaceOnUse" color-interpolation-filters="sRGB">
<feFlood flood-opacity="0" result="BackgroundImageFix"/>
<feColorMatrix in="SourceAlpha" type="matrix" values="0 0 0 0 0 0 0 0 0 0 0 0 0 0 0 0 0 0 127 0" result="hardAlpha"/>
<feOffset dy="1.39675"/>
<feGaussianBlur stdDeviation="0.349187"/>
<feComposite in2="hardAlpha" operator="out"/>
<feColorMatrix type="matrix" values="0 0 0 0 0.0431373 0 0 0 0 0.705882 0 0 0 0 0.45098 0 0 0 0.6 0"/>
<feBlend mode="normal" in2="BackgroundImageFix" result="effect1_dropShadow_306_2"/>
<feBlend mode="normal" in="SourceGraphic" in2="effect1_dropShadow_306_2" result="shape"/>
</filter>
<filter id="filter7_d_306_2" x="333.378" y="610.381" width="74.7008" height="75.2951" filterUnits="userSpaceOnUse" color-interpolation-filters="sRGB">
<feFlood flood-opacity="0" result="BackgroundImageFix"/>
<feColorMatrix in="SourceAlpha" type="matrix" values="0 0 0 0 0 0 0 0 0 0 0 0 0 0 0 0 0 0 127 0" result="hardAlpha"/>
<feOffset dy="3.82606"/>
<feGaussianBlur stdDeviation="0.956515"/>
<feComposite in2="hardAlpha" operator="out"/>
<feColorMatrix type="matrix" values="0 0 0 0 0.0431373 0 0 0 0 0.705882 0 0 0 0 0.45098 0 0 0 0.6 0"/>
<feBlend mode="normal" in2="BackgroundImageFix" result="effect1_dropShadow_306_2"/>
<feBlend mode="normal" in="SourceGraphic" in2="effect1_dropShadow_306_2" result="shape"/>
</filter>
<filter id="filter8_d_306_2" x="1395.32" y="1347.09" width="42.3879" height="42.5865" filterUnits="userSpaceOnUse" color-interpolation-filters="sRGB">
<feFlood flood-opacity="0" result="BackgroundImageFix"/>
<feColorMatrix in="SourceAlpha" type="matrix" values="0 0 0 0 0 0 0 0 0 0 0 0 0 0 0 0 0 0 127 0" result="hardAlpha"/>
<feOffset dy="2.16919"/>
<feGaussianBlur stdDeviation="0.542297"/>
<feComposite in2="hardAlpha" operator="out"/>
<feColorMatrix type="matrix" values="0 0 0 0 0.0431373 0 0 0 0 0.705882 0 0 0 0 0.45098 0 0 0 0.6 0"/>
<feBlend mode="normal" in2="BackgroundImageFix" result="effect1_dropShadow_306_2"/>
<feBlend mode="normal" in="SourceGraphic" in2="effect1_dropShadow_306_2" result="shape"/>
</filter>
<filter id="filter9_d_306_2" x="790.613" y="1583.35" width="30.2892" height="32.1835" filterUnits="userSpaceOnUse" color-interpolation-filters="sRGB">
<feFlood flood-opacity="0" result="BackgroundImageFix"/>
<feColorMatrix in="SourceAlpha" type="matrix" values="0 0 0 0 0 0 0 0 0 0 0 0 0 0 0 0 0 0 127 0" result="hardAlpha"/>
<feOffset dy="1.60248"/>
<feGaussianBlur stdDeviation="0.400619"/>
<feComposite in2="hardAlpha" operator="out"/>
<feColorMatrix type="matrix" values="0 0 0 0 0.0431373 0 0 0 0 0.705882 0 0 0 0 0.45098 0 0 0 0.6 0"/>
<feBlend mode="normal" in2="BackgroundImageFix" result="effect1_dropShadow_306_2"/>
<feBlend mode="normal" in="SourceGraphic" in2="effect1_dropShadow_306_2" result="shape"/>
</filter>
<filter id="filter10_d_306_2" x="958.162" y="1780.46" width="30.423" height="32.1689" filterUnits="userSpaceOnUse" color-interpolation-filters="sRGB">
<feFlood flood-opacity="0" result="BackgroundImageFix"/>
<feColorMatrix in="SourceAlpha" type="matrix" values="0 0 0 0 0 0 0 0 0 0 0 0 0 0 0 0 0 0 127 0" result="hardAlpha"/>
<feOffset dy="1.60248"/>
<feGaussianBlur stdDeviation="0.400619"/>
<feComposite in2="hardAlpha" operator="out"/>
<feColorMatrix type="matrix" values="0 0 0 0 0.0431373 0 0 0 0 0.705882 0 0 0 0 0.45098 0 0 0 0.6 0"/>
<feBlend mode="normal" in2="BackgroundImageFix" result="effect1_dropShadow_306_2"/>
<feBlend mode="normal" in="SourceGraphic" in2="effect1_dropShadow_306_2" result="shape"/>
</filter>
<filter id="filter11_d_306_2" x="1028.03" y="1167.91" width="18.6693" height="18.4739" filterUnits="userSpaceOnUse" color-interpolation-filters="sRGB">
<feFlood flood-opacity="0" result="BackgroundImageFix"/>
<feColorMatrix in="SourceAlpha" type="matrix" values="0 0 0 0 0 0 0 0 0 0 0 0 0 0 0 0 0 0 127 0" result="hardAlpha"/>
<feOffset dy="0.953254"/>
<feGaussianBlur stdDeviation="0.238314"/>
<feComposite in2="hardAlpha" operator="out"/>
<feColorMatrix type="matrix" values="0 0 0 0 0.0431373 0 0 0 0 0.705882 0 0 0 0 0.45098 0 0 0 0.6 0"/>
<feBlend mode="normal" in2="BackgroundImageFix" result="effect1_dropShadow_306_2"/>
<feBlend mode="normal" in="SourceGraphic" in2="effect1_dropShadow_306_2" result="shape"/>
</filter>
<filter id="filter12_d_306_2" x="1237.57" y="1561.7" width="30.2895" height="32.1835" filterUnits="userSpaceOnUse" color-interpolation-filters="sRGB">
<feFlood flood-opacity="0" result="BackgroundImageFix"/>
<feColorMatrix in="SourceAlpha" type="matrix" values="0 0 0 0 0 0 0 0 0 0 0 0 0 0 0 0 0 0 127 0" result="hardAlpha"/>
<feOffset dy="1.60248"/>
<feGaussianBlur stdDeviation="0.400619"/>
<feComposite in2="hardAlpha" operator="out"/>
<feColorMatrix type="matrix" values="0 0 0 0 0.0431373 0 0 0 0 0.705882 0 0 0 0 0.45098 0 0 0 0.6 0"/>
<feBlend mode="normal" in2="BackgroundImageFix" result="effect1_dropShadow_306_2"/>
<feBlend mode="normal" in="SourceGraphic" in2="effect1_dropShadow_306_2" result="shape"/>
</filter>
<filter id="filter13_d_306_2" x="1343.2" y="1087.85" width="31.287" height="31.5354" filterUnits="userSpaceOnUse" color-interpolation-filters="sRGB">
<feFlood flood-opacity="0" result="BackgroundImageFix"/>
<feColorMatrix in="SourceAlpha" type="matrix" values="0 0 0 0 0 0 0 0 0 0 0 0 0 0 0 0 0 0 127 0" result="hardAlpha"/>
<feOffset dy="1.60248"/>
<feGaussianBlur stdDeviation="0.400619"/>
<feComposite in2="hardAlpha" operator="out"/>
<feColorMatrix type="matrix" values="0 0 0 0 0.0431373 0 0 0 0 0.705882 0 0 0 0 0.45098 0 0 0 0.6 0"/>
<feBlend mode="normal" in2="BackgroundImageFix" result="effect1_dropShadow_306_2"/>
<feBlend mode="normal" in="SourceGraphic" in2="effect1_dropShadow_306_2" result="shape"/>
</filter>
<filter id="filter14_d_306_2" x="1199.36" y="2037.33" width="28.785" height="29.6426" filterUnits="userSpaceOnUse" color-interpolation-filters="sRGB">
<feFlood flood-opacity="0" result="BackgroundImageFix"/>
<feColorMatrix in="SourceAlpha" type="matrix" values="0 0 0 0 0 0 0 0 0 0 0 0 0 0 0 0 0 0 127 0" result="hardAlpha"/>
<feOffset dy="1.48765"/>
<feGaussianBlur stdDeviation="0.371912"/>
<feComposite in2="hardAlpha" operator="out"/>
<feColorMatrix type="matrix" values="0 0 0 0 0.0431373 0 0 0 0 0.705882 0 0 0 0 0.45098 0 0 0 0.6 0"/>
<feBlend mode="normal" in2="BackgroundImageFix" result="effect1_dropShadow_306_2"/>
<feBlend mode="normal" in="SourceGraphic" in2="effect1_dropShadow_306_2" result="shape"/>
</filter>
<filter id="filter15_d_306_2" x="1397.29" y="2088" width="31.3876" height="30.9511" filterUnits="userSpaceOnUse" color-interpolation-filters="sRGB">
<feFlood flood-opacity="0" result="BackgroundImageFix"/>
<feColorMatrix in="SourceAlpha" type="matrix" values="0 0 0 0 0 0 0 0 0 0 0 0 0 0 0 0 0 0 127 0" result="hardAlpha"/>
<feOffset dy="1.60248"/>
<feGaussianBlur stdDeviation="0.400619"/>
<feComposite in2="hardAlpha" operator="out"/>
<feColorMatrix type="matrix" values="0 0 0 0 0.0431373 0 0 0 0 0.705882 0 0 0 0 0.45098 0 0 0 0.6 0"/>
<feBlend mode="normal" in2="BackgroundImageFix" result="effect1_dropShadow_306_2"/>
<feBlend mode="normal" in="SourceGraphic" in2="effect1_dropShadow_306_2" result="shape"/>
</filter>
<filter id="filter16_d_306_2" x="255.983" y="939.424" width="19.1518" height="19.3366" filterUnits="userSpaceOnUse" color-interpolation-filters="sRGB">
<feFlood flood-opacity="0" result="BackgroundImageFix"/>
<feColorMatrix in="SourceAlpha" type="matrix" values="0 0 0 0 0 0 0 0 0 0 0 0 0 0 0 0 0 0 127 0" result="hardAlpha"/>
<feOffset dy="0.981421"/>
<feGaussianBlur stdDeviation="0.245355"/>
<feComposite in2="hardAlpha" operator="out"/>
<feColorMatrix type="matrix" values="0 0 0 0 0.0431373 0 0 0 0 0.705882 0 0 0 0 0.45098 0 0 0 0.6 0"/>
<feBlend mode="normal" in2="BackgroundImageFix" result="effect1_dropShadow_306_2"/>
<feBlend mode="normal" in="SourceGraphic" in2="effect1_dropShadow_306_2" result="shape"/>
</filter>
<filter id="filter17_d_306_2" x="218.983" y="572.424" width="19.1518" height="19.3366" filterUnits="userSpaceOnUse" color-interpolation-filters="sRGB">
<feFlood flood-opacity="0" result="BackgroundImageFix"/>
<feColorMatrix in="SourceAlpha" type="matrix" values="0 0 0 0 0 0 0 0 0 0 0 0 0 0 0 0 0 0 127 0" result="hardAlpha"/>
<feOffset dy="0.981421"/>
<feGaussianBlur stdDeviation="0.245355"/>
<feComposite in2="hardAlpha" operator="out"/>
<feColorMatrix type="matrix" values="0 0 0 0 0.0431373 0 0 0 0 0.705882 0 0 0 0 0.45098 0 0 0 0.6 0"/>
<feBlend mode="normal" in2="BackgroundImageFix" result="effect1_dropShadow_306_2"/>
<feBlend mode="normal" in="SourceGraphic" in2="effect1_dropShadow_306_2" result="shape"/>
</filter>
<filter id="filter18_d_306_2" x="817.983" y="439.424" width="19.1518" height="19.3366" filterUnits="userSpaceOnUse" color-interpolation-filters="sRGB">
<feFlood flood-opacity="0" result="BackgroundImageFix"/>
<feColorMatrix in="SourceAlpha" type="matrix" values="0 0 0 0 0 0 0 0 0 0 0 0 0 0 0 0 0 0 127 0" result="hardAlpha"/>
<feOffset dy="0.981421"/>
<feGaussianBlur stdDeviation="0.245355"/>
<feComposite in2="hardAlpha" operator="out"/>
<feColorMatrix type="matrix" values="0 0 0 0 0.0431373 0 0 0 0 0.705882 0 0 0 0 0.45098 0 0 0 0.6 0"/>
<feBlend mode="normal" in2="BackgroundImageFix" result="effect1_dropShadow_306_2"/>
<feBlend mode="normal" in="SourceGraphic" in2="effect1_dropShadow_306_2" result="shape"/>
</filter>
<filter id="filter19_d_306_2" x="697.647" y="1041.1" width="31.3249" height="31.4254" filterUnits="userSpaceOnUse" color-interpolation-filters="sRGB">
<feFlood flood-opacity="0" result="BackgroundImageFix"/>
<feColorMatrix in="SourceAlpha" type="matrix" values="0 0 0 0 0 0 0 0 0 0 0 0 0 0 0 0 0 0 127 0" result="hardAlpha"/>
<feOffset dy="1.60248"/>
<feGaussianBlur stdDeviation="0.400619"/>
<feComposite in2="hardAlpha" operator="out"/>
<feColorMatrix type="matrix" values="0 0 0 0 0.0431373 0 0 0 0 0.705882 0 0 0 0 0.45098 0 0 0 0.6 0"/>
<feBlend mode="normal" in2="BackgroundImageFix" result="effect1_dropShadow_306_2"/>
<feBlend mode="normal" in="SourceGraphic" in2="effect1_dropShadow_306_2" result="shape"/>
</filter>
<filter id="filter20_d_306_2" x="448.77" y="16.9854" width="79.5732" height="81.4638" filterUnits="userSpaceOnUse" color-interpolation-filters="sRGB">
<feFlood flood-opacity="0" result="BackgroundImageFix"/>
<feColorMatrix in="SourceAlpha" type="matrix" values="0 0 0 0 0 0 0 0 0 0 0 0 0 0 0 0 0 0 127 0" result="hardAlpha"/>
<feOffset dy="3.78144"/>
<feGaussianBlur stdDeviation="0.945361"/>
<feComposite in2="hardAlpha" operator="out"/>
<feColorMatrix type="matrix" values="0 0 0 0 0.0431373 0 0 0 0 0.705882 0 0 0 0 0.45098 0 0 0 0.6 0"/>
<feBlend mode="normal" in2="BackgroundImageFix" result="effect1_dropShadow_306_2"/>
<feBlend mode="normal" in="SourceGraphic" in2="effect1_dropShadow_306_2" result="shape"/>
</filter>
<filter id="filter21_d_306_2" x="-69.8695" y="505.034" width="136.788" height="140.368" filterUnits="userSpaceOnUse" color-interpolation-filters="sRGB">
<feFlood flood-opacity="0" result="BackgroundImageFix"/>
<feColorMatrix in="SourceAlpha" type="matrix" values="0 0 0 0 0 0 0 0 0 0 0 0 0 0 0 0 0 0 127 0" result="hardAlpha"/>
<feOffset dy="7.15947"/>
<feGaussianBlur stdDeviation="1.78987"/>
<feComposite in2="hardAlpha" operator="out"/>
<feColorMatrix type="matrix" values="0 0 0 0 0.0431373 0 0 0 0 0.705882 0 0 0 0 0.45098 0 0 0 0.6 0"/>
<feBlend mode="normal" in2="BackgroundImageFix" result="effect1_dropShadow_306_2"/>
<feBlend mode="normal" in="SourceGraphic" in2="effect1_dropShadow_306_2" result="shape"/>
</filter>
<filter id="filter22_d_306_2" x="108.795" y="765.535" width="58.294" height="59.7103" filterUnits="userSpaceOnUse" color-interpolation-filters="sRGB">
<feFlood flood-opacity="0" result="BackgroundImageFix"/>
<feColorMatrix in="SourceAlpha" type="matrix" values="0 0 0 0 0 0 0 0 0 0 0 0 0 0 0 0 0 0 127 0" result="hardAlpha"/>
<feOffset dy="2.83255"/>
<feGaussianBlur stdDeviation="0.708138"/>
<feComposite in2="hardAlpha" operator="out"/>
<feColorMatrix type="matrix" values="0 0 0 0 0.0431373 0 0 0 0 0.705882 0 0 0 0 0.45098 0 0 0 0.6 0"/>
<feBlend mode="normal" in2="BackgroundImageFix" result="effect1_dropShadow_306_2"/>
<feBlend mode="normal" in="SourceGraphic" in2="effect1_dropShadow_306_2" result="shape"/>
</filter>
<filter id="filter23_d_306_2" x="1012.97" y="1622.02" width="79.7092" height="81.761" filterUnits="userSpaceOnUse" color-interpolation-filters="sRGB">
<feFlood flood-opacity="0" result="BackgroundImageFix"/>
<feColorMatrix in="SourceAlpha" type="matrix" values="0 0 0 0 0 0 0 0 0 0 0 0 0 0 0 0 0 0 127 0" result="hardAlpha"/>
<feOffset dy="4.10372"/>
<feGaussianBlur stdDeviation="1.02593"/>
<feComposite in2="hardAlpha" operator="out"/>
<feColorMatrix type="matrix" values="0 0 0 0 0.0431373 0 0 0 0 0.705882 0 0 0 0 0.45098 0 0 0 0.6 0"/>
<feBlend mode="normal" in2="BackgroundImageFix" result="effect1_dropShadow_306_2"/>
<feBlend mode="normal" in="SourceGraphic" in2="effect1_dropShadow_306_2" result="shape"/>
</filter>
<filter id="filter24_d_306_2" x="590.239" y="1674.82" width="22.6703" height="23.2542" filterUnits="userSpaceOnUse" color-interpolation-filters="sRGB">
<feFlood flood-opacity="0" result="BackgroundImageFix"/>
<feColorMatrix in="SourceAlpha" type="matrix" values="0 0 0 0 0 0 0 0 0 0 0 0 0 0 0 0 0 0 127 0" result="hardAlpha"/>
<feOffset dy="1.16716"/>
<feGaussianBlur stdDeviation="0.291789"/>
<feComposite in2="hardAlpha" operator="out"/>
<feColorMatrix type="matrix" values="0 0 0 0 0.0431373 0 0 0 0 0.705882 0 0 0 0 0.45098 0 0 0 0.6 0"/>
<feBlend mode="normal" in2="BackgroundImageFix" result="effect1_dropShadow_306_2"/>
<feBlend mode="normal" in="SourceGraphic" in2="effect1_dropShadow_306_2" result="shape"/>
</filter>
<filter id="filter25_d_306_2" x="867.018" y="22.8697" width="33.0687" height="33.9199" filterUnits="userSpaceOnUse" color-interpolation-filters="sRGB">
<feFlood flood-opacity="0" result="BackgroundImageFix"/>
<feColorMatrix in="SourceAlpha" type="matrix" values="0 0 0 0 0 0 0 0 0 0 0 0 0 0 0 0 0 0 127 0" result="hardAlpha"/>
<feOffset dy="1.70249"/>
<feGaussianBlur stdDeviation="0.425623"/>
<feComposite in2="hardAlpha" operator="out"/>
<feColorMatrix type="matrix" values="0 0 0 0 0.0431373 0 0 0 0 0.705882 0 0 0 0 0.45098 0 0 0 0.6 0"/>
<feBlend mode="normal" in2="BackgroundImageFix" result="effect1_dropShadow_306_2"/>
<feBlend mode="normal" in="SourceGraphic" in2="effect1_dropShadow_306_2" result="shape"/>
</filter>
<filter id="filter26_d_306_2" x="529.273" y="765.462" width="26.0718" height="26.7704" filterUnits="userSpaceOnUse" color-interpolation-filters="sRGB">
<feFlood flood-opacity="0" result="BackgroundImageFix"/>
<feColorMatrix in="SourceAlpha" type="matrix" values="0 0 0 0 0 0 0 0 0 0 0 0 0 0 0 0 0 0 127 0" result="hardAlpha"/>
<feOffset dy="1.39748"/>
<feGaussianBlur stdDeviation="0.34937"/>
<feComposite in2="hardAlpha" operator="out"/>
<feColorMatrix type="matrix" values="0 0 0 0 0.0431373 0 0 0 0 0.705882 0 0 0 0 0.45098 0 0 0 0.6 0"/>
<feBlend mode="normal" in2="BackgroundImageFix" result="effect1_dropShadow_306_2"/>
<feBlend mode="normal" in="SourceGraphic" in2="effect1_dropShadow_306_2" result="shape"/>
</filter>
<filter id="filter27_d_306_2" x="974.444" y="696.143" width="27.1878" height="27.8865" filterUnits="userSpaceOnUse" color-interpolation-filters="sRGB">
<feFlood flood-opacity="0" result="BackgroundImageFix"/>
<feColorMatrix in="SourceAlpha" type="matrix" values="0 0 0 0 0 0 0 0 0 0 0 0 0 0 0 0 0 0 127 0" result="hardAlpha"/>
<feOffset dy="1.39748"/>
<feGaussianBlur stdDeviation="0.34937"/>
<feComposite in2="hardAlpha" operator="out"/>
<feColorMatrix type="matrix" values="0 0 0 0 0.0431373 0 0 0 0 0.705882 0 0 0 0 0.45098 0 0 0 0.6 0"/>
<feBlend mode="normal" in2="BackgroundImageFix" result="effect1_dropShadow_306_2"/>
<feBlend mode="normal" in="SourceGraphic" in2="effect1_dropShadow_306_2" result="shape"/>
</filter>
<filter id="filter28_d_306_2" x="302.193" y="1751.04" width="32.7193" height="33.5706" filterUnits="userSpaceOnUse" color-interpolation-filters="sRGB">
<feFlood flood-opacity="0" result="BackgroundImageFix"/>
<feColorMatrix in="SourceAlpha" type="matrix" values="0 0 0 0 0 0 0 0 0 0 0 0 0 0 0 0 0 0 127 0" result="hardAlpha"/>
<feOffset dy="1.70249"/>
<feGaussianBlur stdDeviation="0.425623"/>
<feComposite in2="hardAlpha" operator="out"/>
<feColorMatrix type="matrix" values="0 0 0 0 0.0431373 0 0 0 0 0.705882 0 0 0 0 0.45098 0 0 0 0.6 0"/>
<feBlend mode="normal" in2="BackgroundImageFix" result="effect1_dropShadow_306_2"/>
<feBlend mode="normal" in="SourceGraphic" in2="effect1_dropShadow_306_2" result="shape"/>
</filter>
<filter id="filter29_d_306_2" x="1002.42" y="1477.27" width="32.7193" height="33.5706" filterUnits="userSpaceOnUse" color-interpolation-filters="sRGB">
<feFlood flood-opacity="0" result="BackgroundImageFix"/>
<feColorMatrix in="SourceAlpha" type="matrix" values="0 0 0 0 0 0 0 0 0 0 0 0 0 0 0 0 0 0 127 0" result="hardAlpha"/>
<feOffset dy="1.70249"/>
<feGaussianBlur stdDeviation="0.425623"/>
<feComposite in2="hardAlpha" operator="out"/>
<feColorMatrix type="matrix" values="0 0 0 0 0.0431373 0 0 0 0 0.705882 0 0 0 0 0.45098 0 0 0 0.6 0"/>
<feBlend mode="normal" in2="BackgroundImageFix" result="effect1_dropShadow_306_2"/>
<feBlend mode="normal" in="SourceGraphic" in2="effect1_dropShadow_306_2" result="shape"/>
</filter>
<filter id="filter30_d_306_2" x="383.968" y="1949.17" width="26.133" height="26.7963" filterUnits="userSpaceOnUse" color-interpolation-filters="sRGB">
<feFlood flood-opacity="0" result="BackgroundImageFix"/>
<feColorMatrix in="SourceAlpha" type="matrix" values="0 0 0 0 0 0 0 0 0 0 0 0 0 0 0 0 0 0 127 0" result="hardAlpha"/>
<feOffset dy="1.32709"/>
<feGaussianBlur stdDeviation="0.331773"/>
<feComposite in2="hardAlpha" operator="out"/>
<feColorMatrix type="matrix" values="0 0 0 0 0.0431373 0 0 0 0 0.705882 0 0 0 0 0.45098 0 0 0 0.6 0"/>
<feBlend mode="normal" in2="BackgroundImageFix" result="effect1_dropShadow_306_2"/>
<feBlend mode="normal" in="SourceGraphic" in2="effect1_dropShadow_306_2" result="shape"/>
</filter>
<filter id="filter31_d_306_2" x="124.042" y="1985.71" width="26.038" height="26.7016" filterUnits="userSpaceOnUse" color-interpolation-filters="sRGB">
<feFlood flood-opacity="0" result="BackgroundImageFix"/>
<feColorMatrix in="SourceAlpha" type="matrix" values="0 0 0 0 0 0 0 0 0 0 0 0 0 0 0 0 0 0 127 0" result="hardAlpha"/>
<feOffset dy="1.32709"/>
<feGaussianBlur stdDeviation="0.331773"/>
<feComposite in2="hardAlpha" operator="out"/>
<feColorMatrix type="matrix" values="0 0 0 0 0.0431373 0 0 0 0 0.705882 0 0 0 0 0.45098 0 0 0 0.6 0"/>
<feBlend mode="normal" in2="BackgroundImageFix" result="effect1_dropShadow_306_2"/>
<feBlend mode="normal" in="SourceGraphic" in2="effect1_dropShadow_306_2" result="shape"/>
</filter>
<filter id="filter32_d_306_2" x="963.196" y="934.047" width="35.1747" height="36.0258" filterUnits="userSpaceOnUse" color-interpolation-filters="sRGB">
<feFlood flood-opacity="0" result="BackgroundImageFix"/>
<feColorMatrix in="SourceAlpha" type="matrix" values="0 0 0 0 0 0 0 0 0 0 0 0 0 0 0 0 0 0 127 0" result="hardAlpha"/>
<feOffset dy="1.70249"/>
<feGaussianBlur stdDeviation="0.425623"/>
<feComposite in2="hardAlpha" operator="out"/>
<feColorMatrix type="matrix" values="0 0 0 0 0.0431373 0 0 0 0 0.705882 0 0 0 0 0.45098 0 0 0 0.6 0"/>
<feBlend mode="normal" in2="BackgroundImageFix" result="effect1_dropShadow_306_2"/>
<feBlend mode="normal" in="SourceGraphic" in2="effect1_dropShadow_306_2" result="shape"/>
</filter>
<filter id="filter33_d_306_2" x="443.777" y="938.249" width="57.1678" height="58.6395" filterUnits="userSpaceOnUse" color-interpolation-filters="sRGB">
<feFlood flood-opacity="0" result="BackgroundImageFix"/>
<feColorMatrix in="SourceAlpha" type="matrix" values="0 0 0 0 0 0 0 0 0 0 0 0 0 0 0 0 0 0 127 0" result="hardAlpha"/>
<feOffset dy="2.94321"/>
<feGaussianBlur stdDeviation="0.735802"/>
<feComposite in2="hardAlpha" operator="out"/>
<feColorMatrix type="matrix" values="0 0 0 0 0.0431373 0 0 0 0 0.705882 0 0 0 0 0.45098 0 0 0 0.6 0"/>
<feBlend mode="normal" in2="BackgroundImageFix" result="effect1_dropShadow_306_2"/>
<feBlend mode="normal" in="SourceGraphic" in2="effect1_dropShadow_306_2" result="shape"/>
</filter>
<filter id="filter34_d_306_2" x="-21.2228" y="959.249" width="57.1678" height="58.6395" filterUnits="userSpaceOnUse" color-interpolation-filters="sRGB">
<feFlood flood-opacity="0" result="BackgroundImageFix"/>
<feColorMatrix in="SourceAlpha" type="matrix" values="0 0 0 0 0 0 0 0 0 0 0 0 0 0 0 0 0 0 127 0" result="hardAlpha"/>
<feOffset dy="2.94321"/>
<feGaussianBlur stdDeviation="0.735802"/>
<feComposite in2="hardAlpha" operator="out"/>
<feColorMatrix type="matrix" values="0 0 0 0 0.0431373 0 0 0 0 0.705882 0 0 0 0 0.45098 0 0 0 0.6 0"/>
<feBlend mode="normal" in2="BackgroundImageFix" result="effect1_dropShadow_306_2"/>
<feBlend mode="normal" in="SourceGraphic" in2="effect1_dropShadow_306_2" result="shape"/>
</filter>
<filter id="filter35_d_306_2" x="702.134" y="814.279" width="44.1948" height="46.2706" filterUnits="userSpaceOnUse" color-interpolation-filters="sRGB">
<feFlood flood-opacity="0" result="BackgroundImageFix"/>
<feColorMatrix in="SourceAlpha" type="matrix" values="0 0 0 0 0 0 0 0 0 0 0 0 0 0 0 0 0 0 127 0" result="hardAlpha"/>
<feOffset dy="2.30906"/>
<feGaussianBlur stdDeviation="0.577266"/>
<feComposite in2="hardAlpha" operator="out"/>
<feColorMatrix type="matrix" values="0 0 0 0 0.0431373 0 0 0 0 0.705882 0 0 0 0 0.45098 0 0 0 0.6 0"/>
<feBlend mode="normal" in2="BackgroundImageFix" result="effect1_dropShadow_306_2"/>
<feBlend mode="normal" in="SourceGraphic" in2="effect1_dropShadow_306_2" result="shape"/>
</filter>
<filter id="filter36_d_306_2" x="30.9922" y="1616.13" width="49.2978" height="51.6625" filterUnits="userSpaceOnUse" color-interpolation-filters="sRGB">
<feFlood flood-opacity="0" result="BackgroundImageFix"/>
<feColorMatrix in="SourceAlpha" type="matrix" values="0 0 0 0 0 0 0 0 0 0 0 0 0 0 0 0 0 0 127 0" result="hardAlpha"/>
<feOffset dy="2.57757"/>
<feGaussianBlur stdDeviation="0.644392"/>
<feComposite in2="hardAlpha" operator="out"/>
<feColorMatrix type="matrix" values="0 0 0 0 0.0431373 0 0 0 0 0.705882 0 0 0 0 0.45098 0 0 0 0.6 0"/>
<feBlend mode="normal" in2="BackgroundImageFix" result="effect1_dropShadow_306_2"/>
<feBlend mode="normal" in="SourceGraphic" in2="effect1_dropShadow_306_2" result="shape"/>
</filter>
<filter id="filter37_d_306_2" x="242.333" y="4.86151" width="29.4158" height="29.1213" filterUnits="userSpaceOnUse" color-interpolation-filters="sRGB">
<feFlood flood-opacity="0" result="BackgroundImageFix"/>
<feColorMatrix in="SourceAlpha" type="matrix" values="0 0 0 0 0 0 0 0 0 0 0 0 0 0 0 0 0 0 127 0" result="hardAlpha"/>
<feOffset dy="1.50201"/>
<feGaussianBlur stdDeviation="0.375503"/>
<feComposite in2="hardAlpha" operator="out"/>
<feColorMatrix type="matrix" values="0 0 0 0 0.0431373 0 0 0 0 0.705882 0 0 0 0 0.45098 0 0 0 0.6 0"/>
<feBlend mode="normal" in2="BackgroundImageFix" result="effect1_dropShadow_306_2"/>
<feBlend mode="normal" in="SourceGraphic" in2="effect1_dropShadow_306_2" result="shape"/>
</filter>
<filter id="filter38_d_306_2" x="-9.63336" y="199.153" width="53.1617" height="54.2237" filterUnits="userSpaceOnUse" color-interpolation-filters="sRGB">
<feFlood flood-opacity="0" result="BackgroundImageFix"/>
<feColorMatrix in="SourceAlpha" type="matrix" values="0 0 0 0 0 0 0 0 0 0 0 0 0 0 0 0 0 0 127 0" result="hardAlpha"/>
<feOffset dy="2.73449"/>
<feGaussianBlur stdDeviation="0.683624"/>
<feComposite in2="hardAlpha" operator="out"/>
<feColorMatrix type="matrix" values="0 0 0 0 0.0431373 0 0 0 0 0.705882 0 0 0 0 0.45098 0 0 0 0.6 0"/>
<feBlend mode="normal" in2="BackgroundImageFix" result="effect1_dropShadow_306_2"/>
<feBlend mode="normal" in="SourceGraphic" in2="effect1_dropShadow_306_2" result="shape"/>
</filter>
<filter id="filter39_f_306_2" x="173" y="1632" width="368" height="119" filterUnits="userSpaceOnUse" color-interpolation-filters="sRGB">
<feFlood flood-opacity="0" result="BackgroundImageFix"/>
<feBlend mode="normal" in="SourceGraphic" in2="BackgroundImageFix" result="shape"/>
<feGaussianBlur stdDeviation="20" result="effect1_foregroundBlur_306_2"/>
</filter>
<linearGradient id="paint0_linear_306_2" x1="1342.94" y1="426.415" x2="1366.31" y2="582.579" gradientUnits="userSpaceOnUse">
<stop offset="0.315739" stop-color="#0CB473"/>
<stop offset="1" stop-color="#3BCC94" stop-opacity="0"/>
</linearGradient>
<linearGradient id="paint1_linear_306_2" x1="733.113" y1="112.42" x2="705.233" y2="86.2478" gradientUnits="userSpaceOnUse">
<stop offset="0.315739" stop-color="#0CB473"/>
<stop offset="1" stop-color="#3BCC94" stop-opacity="0"/>
</linearGradient>
<linearGradient id="paint2_linear_306_2" x1="349.714" y1="674.693" x2="419.1" y2="596.222" gradientUnits="userSpaceOnUse">
<stop offset="0.315739" stop-color="#0CB473"/>
<stop offset="1" stop-color="#3BCC94" stop-opacity="0"/>
</linearGradient>
<linearGradient id="paint3_linear_306_2" x1="1395.56" y1="1375.62" x2="1453.36" y2="1362.02" gradientUnits="userSpaceOnUse">
<stop offset="0.315739" stop-color="#0CB473"/>
<stop offset="1" stop-color="#3BCC94" stop-opacity="0"/>
</linearGradient>
<linearGradient id="paint4_linear_306_2" x1="788.464" y1="1599.64" x2="832.319" y2="1600.88" gradientUnits="userSpaceOnUse">
<stop offset="0.315739" stop-color="#0CB473"/>
<stop offset="1" stop-color="#3BCC94" stop-opacity="0"/>
</linearGradient>
<linearGradient id="paint5_linear_306_2" x1="962.169" y1="1805.94" x2="998.829" y2="1781.84" gradientUnits="userSpaceOnUse">
<stop offset="0.315739" stop-color="#0CB473"/>
<stop offset="1" stop-color="#3BCC94" stop-opacity="0"/>
</linearGradient>
<linearGradient id="paint6_linear_306_2" x1="1027.88" y1="1173.94" x2="1052.77" y2="1181.78" gradientUnits="userSpaceOnUse">
<stop offset="0.315739" stop-color="#0CB473"/>
<stop offset="1" stop-color="#3BCC94" stop-opacity="0"/>
</linearGradient>
<linearGradient id="paint7_linear_306_2" x1="1235.42" y1="1577.99" x2="1279.27" y2="1579.23" gradientUnits="userSpaceOnUse">
<stop offset="0.315739" stop-color="#0CB473"/>
<stop offset="1" stop-color="#3BCC94" stop-opacity="0"/>
</linearGradient>
<linearGradient id="paint8_linear_306_2" x1="1342.42" y1="1099.66" x2="1385.11" y2="1109.8" gradientUnits="userSpaceOnUse">
<stop offset="0.315739" stop-color="#0CB473"/>
<stop offset="1" stop-color="#3BCC94" stop-opacity="0"/>
</linearGradient>
<linearGradient id="paint9_linear_306_2" x1="1202.03" y1="2060.05" x2="1238.17" y2="2041.27" gradientUnits="userSpaceOnUse">
<stop offset="0.315739" stop-color="#0CB473"/>
<stop offset="1" stop-color="#3BCC94" stop-opacity="0"/>
</linearGradient>
<linearGradient id="paint10_linear_306_2" x1="1397.17" y1="2097.72" x2="1438.75" y2="2111.7" gradientUnits="userSpaceOnUse">
<stop offset="0.315739" stop-color="#0CB473"/>
<stop offset="1" stop-color="#3BCC94" stop-opacity="0"/>
</linearGradient>
<linearGradient id="paint11_linear_306_2" x1="260.132" y1="955.911" x2="278.061" y2="935.899" gradientUnits="userSpaceOnUse">
<stop offset="0.315739" stop-color="#0CB473"/>
<stop offset="1" stop-color="#3BCC94" stop-opacity="0"/>
</linearGradient>
<linearGradient id="paint12_linear_306_2" x1="223.132" y1="588.911" x2="241.061" y2="568.899" gradientUnits="userSpaceOnUse">
<stop offset="0.315739" stop-color="#0CB473"/>
<stop offset="1" stop-color="#3BCC94" stop-opacity="0"/>
</linearGradient>
<linearGradient id="paint13_linear_306_2" x1="822.132" y1="455.912" x2="840.061" y2="435.899" gradientUnits="userSpaceOnUse">
<stop offset="0.315739" stop-color="#0CB473"/>
<stop offset="1" stop-color="#3BCC94" stop-opacity="0"/>
</linearGradient>
<linearGradient id="paint14_linear_306_2" x1="704.678" y1="1068.07" x2="733.128" y2="1034.67" gradientUnits="userSpaceOnUse">
<stop offset="0.315739" stop-color="#0CB473"/>
<stop offset="1" stop-color="#3BCC94" stop-opacity="0"/>
</linearGradient>
<linearGradient id="paint15_linear_306_2" x1="525.42" y1="45.1495" x2="422.872" y2="59.3483" gradientUnits="userSpaceOnUse">
<stop offset="0.315739" stop-color="#0CB473"/>
<stop offset="1" stop-color="#3BCC94" stop-opacity="0"/>
</linearGradient>
<linearGradient id="paint16_linear_306_2" x1="3.92445" y1="497.866" x2="-34.1318" y2="690.145" gradientUnits="userSpaceOnUse">
<stop offset="0.315739" stop-color="#0CB473"/>
<stop offset="1" stop-color="#3BCC94" stop-opacity="0"/>
</linearGradient>
<linearGradient id="paint17_linear_306_2" x1="119.266" y1="771.659" x2="162.556" y2="836" gradientUnits="userSpaceOnUse">
<stop offset="0.315739" stop-color="#0CB473"/>
<stop offset="1" stop-color="#3BCC94" stop-opacity="0"/>
</linearGradient>
<linearGradient id="paint18_linear_306_2" x1="1054.33" y1="1618.48" x2="1036.78" y2="1729.45" gradientUnits="userSpaceOnUse">
<stop offset="0.315739" stop-color="#0CB473"/>
<stop offset="1" stop-color="#3BCC94" stop-opacity="0"/>
</linearGradient>
<linearGradient id="paint19_linear_306_2" x1="602.002" y1="1673.81" x2="597.01" y2="1705.38" gradientUnits="userSpaceOnUse">
<stop offset="0.315739" stop-color="#0CB473"/>
<stop offset="1" stop-color="#3BCC94" stop-opacity="0"/>
</linearGradient>
<linearGradient id="paint20_linear_306_2" x1="884.177" y1="21.3988" x2="876.895" y2="67.4365" gradientUnits="userSpaceOnUse">
<stop offset="0.315739" stop-color="#0CB473"/>
<stop offset="1" stop-color="#3BCC94" stop-opacity="0"/>
</linearGradient>
<linearGradient id="paint21_linear_306_2" x1="530.607" y1="769.951" x2="559.589" y2="794.928" gradientUnits="userSpaceOnUse">
<stop offset="0.315739" stop-color="#0CB473"/>
<stop offset="1" stop-color="#3BCC94" stop-opacity="0"/>
</linearGradient>
<linearGradient id="paint22_linear_306_2" x1="988.494" y1="694.955" x2="982.666" y2="732.768" gradientUnits="userSpaceOnUse">
<stop offset="0.315739" stop-color="#0CB473"/>
<stop offset="1" stop-color="#3BCC94" stop-opacity="0"/>
</linearGradient>
<linearGradient id="paint23_linear_306_2" x1="304.934" y1="1756.1" x2="338.235" y2="1788.72" gradientUnits="userSpaceOnUse">
<stop offset="0.315739" stop-color="#0CB473"/>
<stop offset="1" stop-color="#3BCC94" stop-opacity="0"/>
</linearGradient>
<linearGradient id="paint24_linear_306_2" x1="1005.16" y1="1482.34" x2="1038.47" y2="1514.95" gradientUnits="userSpaceOnUse">
<stop offset="0.315739" stop-color="#0CB473"/>
<stop offset="1" stop-color="#3BCC94" stop-opacity="0"/>
</linearGradient>
<linearGradient id="paint25_linear_306_2" x1="397.053" y1="1948.19" x2="392.636" y2="1984.25" gradientUnits="userSpaceOnUse">
<stop offset="0.315739" stop-color="#0CB473"/>
<stop offset="1" stop-color="#3BCC94" stop-opacity="0"/>
</linearGradient>
<linearGradient id="paint26_linear_306_2" x1="126.871" y1="1989.39" x2="151.51" y2="2016.09" gradientUnits="userSpaceOnUse">
<stop offset="0.315739" stop-color="#0CB473"/>
<stop offset="1" stop-color="#3BCC94" stop-opacity="0"/>
</linearGradient>
<linearGradient id="paint27_linear_306_2" x1="978.071" y1="933.834" x2="979.85" y2="980.41" gradientUnits="userSpaceOnUse">
<stop offset="0.315739" stop-color="#0CB473"/>
<stop offset="1" stop-color="#3BCC94" stop-opacity="0"/>
</linearGradient>
<linearGradient id="paint28_linear_306_2" x1="473.439" y1="935.706" x2="460.851" y2="1015.29" gradientUnits="userSpaceOnUse">
<stop offset="0.315739" stop-color="#0CB473"/>
<stop offset="1" stop-color="#3BCC94" stop-opacity="0"/>
</linearGradient>
<linearGradient id="paint29_linear_306_2" x1="8.43949" y1="956.706" x2="-4.14916" y2="1036.29" gradientUnits="userSpaceOnUse">
<stop offset="0.315739" stop-color="#0CB473"/>
<stop offset="1" stop-color="#3BCC94" stop-opacity="0"/>
</linearGradient>
<linearGradient id="paint30_linear_306_2" x1="699.965" y1="840.564" x2="763.026" y2="836.121" gradientUnits="userSpaceOnUse">
<stop offset="0.315739" stop-color="#0CB473"/>
<stop offset="1" stop-color="#3BCC94" stop-opacity="0"/>
</linearGradient>
<linearGradient id="paint31_linear_306_2" x1="36.8291" y1="1656.62" x2="97.0949" y2="1619.9" gradientUnits="userSpaceOnUse">
<stop offset="0.315739" stop-color="#0CB473"/>
<stop offset="1" stop-color="#3BCC94" stop-opacity="0"/>
</linearGradient>
<linearGradient id="paint32_linear_306_2" x1="243.446" y1="25.9625" x2="282.415" y2="12.8317" gradientUnits="userSpaceOnUse">
<stop offset="0.315739" stop-color="#0CB473"/>
<stop offset="1" stop-color="#3BCC94" stop-opacity="0"/>
</linearGradient>
<linearGradient id="paint33_linear_306_2" x1="-8.12743" y1="213.861" x2="59.0777" y2="246.847" gradientUnits="userSpaceOnUse">
<stop offset="0.315739" stop-color="#0CB473"/>
<stop offset="1" stop-color="#3BCC94" stop-opacity="0"/>
</linearGradient>
<linearGradient id="paint34_linear_306_2" x1="1200.06" y1="763.934" x2="1302.5" y2="802.641" gradientUnits="userSpaceOnUse">
<stop offset="0.315739" stop-color="#0CB473"/>
<stop offset="1" stop-color="#3BCC94" stop-opacity="0"/>
</linearGradient>
<linearGradient id="paint35_linear_306_2" x1="1113.4" y1="1037.53" x2="1195.19" y2="1110.35" gradientUnits="userSpaceOnUse">
<stop offset="0.315739" stop-color="#0CB473"/>
<stop offset="1" stop-color="#3BCC94" stop-opacity="0"/>
</linearGradient>
<linearGradient id="paint36_linear_306_2" x1="1487.46" y1="1785.19" x2="1236.18" y2="1630.37" gradientUnits="userSpaceOnUse">
<stop offset="0.315739" stop-color="#0CB473"/>
<stop offset="1" stop-color="#3BCC94" stop-opacity="0"/>
</linearGradient>
<linearGradient id="paint37_linear_306_2" x1="720.568" y1="1757.29" x2="547.435" y2="1838.22" gradientUnits="userSpaceOnUse">
<stop offset="0.315739" stop-color="#0CB473"/>
<stop offset="1" stop-color="#3BCC94" stop-opacity="0"/>
</linearGradient>
</defs>
</svg>
